<?xml version="1.0" standalone="no"?><!DOCTYPE svg PUBLIC "-//W3C//DTD SVG 1.1//EN" "http://www.w3.org/Graphics/SVG/1.1/DTD/svg11.dtd"><svg t="1543974086034" class="icon" style="" viewBox="0 0 1024 1024" version="1.1" xmlns="http://www.w3.org/2000/svg" p-id="15471" xmlns:xlink="http://www.w3.org/1999/xlink" width="200" height="200"><defs><style type="text/css"></style></defs><path d="M614.741333 427.776c41.045333-17.066667 85.162667-25.856 129.792-25.770667l13.141334 0.170667c21.162667-52.48 26.538667-114.432 15.872-174.592A255.744 255.744 0 0 0 477.269333 21.333333c-139.093333 24.32-256.682667 130.730667-231.850666 268.885334 5.205333 29.781333 19.797333 76.373333 37.205333 109.994666L29.952 758.869333a80.810667 80.810667 0 0 0-11.776 52.906667l11.008 61.354667c-10.496-58.965333 2.901333 21.333333 11.008 21.162666l83.2 1.109334a76.970667 76.970667 0 0 0 45.056-29.696l99.754667-153.685334 1.024-0.853333 87.381333 6.826667 116.650667-179.968c0.426667 0 0.853333 0.256 1.194666 0.256 10.496-14.08 21.845333-27.392 34.56-39.936a326.826667 326.826667 0 0 1 105.728-70.570667zM84.650667 796.586667l-12.373334 5.034666 1.365334-13.141333L315.733333 442.794667l14.421334 13.312-245.504 340.48z m367.872-635.904a120.917333 120.917333 0 0 1 167.936-29.44 119.466667 119.466667 0 0 1 29.866666 167.168c-38.229333 54.186667-77.312 16.042667-131.925333-22.016-54.442667-38.144-104.192-61.354667-65.877333-115.712z" p-id="15472" fill="#e6e6e6"></path><path d="M741.205333 468.48c-146.688 0-265.472 116.736-265.472 261.205333 0 143.957333 118.784 260.864 265.472 260.864 146.602667 0 265.472-116.906667 265.472-260.864 0-144.469333-118.954667-261.205333-265.472-261.205333z m153.429334 368.213333c0 38.912-76.032 47.872-147.370667 47.872-71.253333 0-148.053333-8.874667-148.053333-47.872v-10.752c0-28.672 52.565333-57.856 97.194666-73.472 3.242667-1.194667 18.773333-9.557333 9.984-31.829333a138.922667 138.922667 0 0 1-38.912-93.866667c0-54.357333 36.608-82.858667 79.530667-82.858666 42.666667 0 79.616 28.501333 79.616 82.858666 0 35.328-16.810667 71.253333-38.741333 93.696h0.256c-8.533333 25.258667 4.949333 31.488 6.997333 32 46.933333 15.189333 99.754667 44.202667 99.754667 73.472l-0.256 10.752z" p-id="15473" fill="#e6e6e6"></path></svg>