<?xml version="1.0" standalone="no"?><!DOCTYPE svg PUBLIC "-//W3C//DTD SVG 1.1//EN" "http://www.w3.org/Graphics/SVG/1.1/DTD/svg11.dtd"><svg t="1543973836338" class="icon" style="" viewBox="0 0 1024 1024" version="1.1" xmlns="http://www.w3.org/2000/svg" p-id="10581" xmlns:xlink="http://www.w3.org/1999/xlink" width="200" height="200"><defs><style type="text/css"></style></defs><path d="M719.243346 1023.990791c-69.851973 0-135.352011-25.732999-184.82981-72.770317-92.845698-88.264553-102.162501-229.094087-21.833346-327.588193l1.459172-1.937035L42.796408 173.755043 209.291405 15.767448c10.767788-10.238762 25.033087-15.767448 40.169182-15.767448 15.136095 0 29.393207 5.528686 40.169182 15.767448 10.767788 10.238762 16.586057 23.795963 16.586057 38.180984s-5.819292 27.942222-16.586057 37.907772l-86.156633 81.898839 88.477392 84.109085 86.156633-81.898839c10.775975-10.238762 25.041273-15.775634 40.177368-15.775634 15.126886 0 29.393207 5.536872 40.169182 15.775634 10.767788 10.238762 16.586057 23.795963 16.586057 38.180984 0 14.38502-5.819292 27.951431-16.586057 38.180984l-86.164819 81.898839 230.817261 219.401747 1.748755-0.827819c35.510269-16.595267 75.380659-25.17839 114.969651-25.17839 69.851973 0 135.343825 25.732999 184.82981 72.770317 49.187192 46.755921 76.549224 109.287476 76.549224 175.692078 0 66.396416-27.072449 128.927971-76.549224 175.692078C854.587171 998.257792 789.095318 1023.990791 719.243346 1023.990791zM719.243346 634.972073c-39.588992 0-76.848017 14.666418-104.782052 41.227235-57.634222 54.784436-57.634222 144.148997 0 198.933433 27.934036 26.559794 65.19306 41.227235 104.782052 41.227235 39.579783 0 76.83983-14.666418 104.782052-41.227235 57.634222-54.784436 57.634222-144.148997 0-198.933433C795.79257 649.638491 758.823129 634.972073 719.243346 634.972073z" p-id="10582" fill="#e6e6e6"></path></svg>