<?xml version="1.0" standalone="no"?><!DOCTYPE svg PUBLIC "-//W3C//DTD SVG 1.1//EN" "http://www.w3.org/Graphics/SVG/1.1/DTD/svg11.dtd"><svg t="1543974127976" class="icon" style="" viewBox="0 0 1024 1024" version="1.1" xmlns="http://www.w3.org/2000/svg" p-id="17241" xmlns:xlink="http://www.w3.org/1999/xlink" width="200" height="200"><defs><style type="text/css"></style></defs><path d="M551.19 579.947v-64.971c65.546-13.365 114.869-71.179 114.869-140.48 0-79.179-64.416-143.37-143.862-143.37s-143.85 64.191-143.85 143.38c0 69.665 49.845 127.734 115.946 140.683V763.36a28.448 28.448 0 1 0 56.896 0V636.661h85.44a28.352 28.352 0 0 0 0-56.714h-85.44zM886.24 136.96c24.053 3.424 44.661 27.392 41.227 51.36v493.067c0 30.816-68.704 116.416-130.539 174.613-82.453 75.339-274.837 164.363-281.707 167.787h-6.869c-10.304-3.424-199.253-92.448-281.707-167.787-61.813-58.187-130.538-143.787-130.538-174.613V188.32c0-27.392 20.618-47.936 44.661-51.36L515.221 0 886.24 136.96z" p-id="17242" fill="#e6e6e6"></path><path d="M429.877 374.507a92.32 92.021 0 1 0 184.64 0 92.32 92.021 0 1 0-184.64 0z" p-id="17243" fill="#e6e6e6"></path></svg>