<?xml version="1.0" standalone="no"?><!DOCTYPE svg PUBLIC "-//W3C//DTD SVG 1.1//EN" "http://www.w3.org/Graphics/SVG/1.1/DTD/svg11.dtd"><svg t="1542957218811" class="icon" style="" viewBox="0 0 1024 1024" version="1.1" xmlns="http://www.w3.org/2000/svg" p-id="3460" xmlns:xlink="http://www.w3.org/1999/xlink" width="200" height="200"><defs><style type="text/css"></style></defs><path d="M382.048 715.2v-228.064h94.208v36.096a269.408 269.408 0 0 1 64.416-41.184V98.976c0-18.624-15.008-33.632-33.568-33.632H34.912A33.6 33.6 0 0 0 1.28 98.976v686.016c0 18.56 15.072 33.536 33.632 33.536h362.048a269.12 269.12 0 0 1-14.912-103.296v-0.032z m94.208-286.752h-94.208v-94.176h94.208v94.176zM65.76 134.944h410.528v121.632H65.76V134.944zM159.904 734.08H65.76v-94.176h94.144v94.176z m0-152.896H65.76v-94.112h94.144v94.112z m0-152.736H65.76v-94.176h94.144v94.176z m158.112 305.632H223.872v-94.176h94.144v94.176z m0-152.896H223.872v-94.112h94.144v94.112z m0-152.736H223.872v-94.176h94.144v94.176z" p-id="3461"></path><path d="M652.896 486.496a241.856 241.856 0 0 0-176.64 76.384 241.504 241.504 0 0 0-65.728 165.92c0 1.856 0 3.392 0.096 5.184 0.544 29.856 6.496 58.4 17.024 84.576a242.464 242.464 0 0 0 225.248 152.8 242.304 242.304 0 0 0 242.4-242.336 242.4 242.4 0 0 0-242.4-242.528z m75.584 244.512v25.632h-62.336v35.136h62.336v25.856h-62.336v51.328h-32.096V817.6h-64.64v-25.856h64.64v-35.136h-64.64v-25.632h55.136l-67.2-115.488h36.16c31.392 57.376 50.464 93.856 57.248 109.152h0.672c2.272-6.304 8.608-19.04 18.848-38.304l38.432-70.848h34.208l-67.968 115.488h53.536v0.032z" p-id="3462"></path><path d="M837.824 230.848a184.832 184.832 0 0 0-184.832 184.864 184.832 184.832 0 1 0 184.832-184.864z m-17.152 225.76a4.416 4.416 0 0 1-4.384 4.384h-52.416a4.416 4.416 0 0 1-4.384-4.384v-22.72c0-2.4 1.984-4.384 4.384-4.384h52.416c2.4 0 4.384 1.984 4.384 4.384v22.72z m0-47.264a4.384 4.384 0 0 1-4.384 4.384h-52.416a4.384 4.384 0 0 1-4.384-4.384v-22.752c0-2.368 1.984-4.352 4.384-4.352h52.416c2.4 0 4.384 1.984 4.384 4.352v22.752z m91.872 67.648a4.448 4.448 0 0 1-4.416 4.384h-56.064a4.416 4.416 0 0 1-4.384-4.384v-90.624c0-2.432 1.984-4.416 4.384-4.416h56.064c2.4 0 4.416 1.984 4.416 4.416v90.624z m45.792-117.984a5.184 5.184 0 0 1-5.12 5.28h-5.088a5.152 5.152 0 0 0-5.088 5.248v121.312c0 2.88-2.272 5.248-5.12 5.248h-5.12a5.12 5.12 0 0 1-5.024-5.248v-121.312a5.184 5.184 0 0 0-5.12-5.248h-174.336a5.184 5.184 0 0 0-5.12 5.248v121.312c0 2.88-2.24 5.248-5.088 5.248h-5.024a5.184 5.184 0 0 1-5.12-5.248v-121.312a5.216 5.216 0 0 0-5.088-5.248h-5.12a5.184 5.184 0 0 1-5.12-5.28v-5.216c0-2.912 2.272-5.28 5.12-5.28h33.984l0.192-0.8 1.088-3.744a19.2 19.2 0 0 0-0.384-9.984l-2.016-5.408a25.344 25.344 0 0 1-1.28-10.144l0.64-5.312a5.888 5.888 0 0 1 5.664-5.216h14.08c2.784 0 5.344 2.368 5.632 5.216l0.64 5.312a25.92 25.92 0 0 1-1.248 10.144l-2.048 5.408a19.2 19.2 0 0 0-0.352 9.984l1.056 3.744a3.488 3.488 0 0 1 0.128 0.8h89.376l9.056-5.504v-5.92h-26.272a8.32 8.32 0 0 1-8.16-8.416V292.992a8.32 8.32 0 0 1 8.16-8.416h65.28a8.32 8.32 0 0 1 8.16 8.416v35.712a8.32 8.32 0 0 1-8.16 8.416h-26.272v5.92l9.056 5.504h59.52c2.848 0 5.12 2.336 5.12 5.28v5.184z" p-id="3463"></path></svg>