<?xml version="1.0" standalone="no"?><!DOCTYPE svg PUBLIC "-//W3C//DTD SVG 1.1//EN" "http://www.w3.org/Graphics/SVG/1.1/DTD/svg11.dtd"><svg t="1542957228735" class="icon" style="" viewBox="0 0 1024 1024" version="1.1" xmlns="http://www.w3.org/2000/svg" p-id="3583" xmlns:xlink="http://www.w3.org/1999/xlink" width="200" height="200"><defs><style type="text/css"></style></defs><path d="M62.976 609.344c19.52 19.648 42.688 34.048 67.2 46.464 41.6 21.056 85.76 35.2 130.944 46.016 68.096 16.384 137.408 24.64 207.36 27.072 65.536 2.304 130.944-0.384 196.032-9.024 50.24-6.656 99.84-16.576 148.16-31.744 42.048-13.184 82.688-29.568 119.232-54.656 19.52-13.376 37.056-28.8 49.088-49.6 12.032-20.928 14.656-42.816 5.312-65.6-7.488-18.496-20.48-32.64-35.392-45.376-3.136-2.688-6.464-5.184-9.6-7.744-24.448 26.304-39.552 38.464-63.424 51.648-39.872 22.08-82.56 36.992-126.592 48.128-44.736 11.392-90.176 19.264-136.192 22.656C580.416 590.208 545.6 592.256 510.784 592.576 456.192 592.96 401.792 588.8 347.84 580.096c-50.56-8.128-100.096-19.776-147.968-38.4C168.32 529.408 137.984 514.688 111.488 493.312 101.184 485.056 92.096 475.264 81.856 465.536c-5.888 5.12-12.672 10.56-18.88 16.704-14.272 14.016-25.472 29.952-29.44 50.112C33.088 535.104 32.512 537.792 32 540.544c0 3.456 0 6.848 0 10.368 0.448 2.304 0.96 4.544 1.344 6.848C37.248 578.368 48.576 594.752 62.976 609.344z" p-id="3584"></path><path d="M961.344 673.088c-6.336-6.208-13.248-11.712-19.968-17.6-20.032 25.472-45.504 42.496-72.96 57.024-36.928 19.52-76.224 32.768-116.544 43.008-63.68 16.192-128.576 24.32-194.112 26.944-78.656 3.136-156.8-1.344-234.304-15.808-53.44-9.92-105.536-24.256-154.816-47.68-23.616-11.264-46.272-24.32-65.664-42.112-7.104-6.464-13.504-13.696-20.672-21.056-6.4 5.568-13.184 11.072-19.456 17.152-14.208 14.08-25.344 30.08-29.312 50.176-0.576 2.88-1.088 5.824-1.536 8.64 0 3.2 0 6.272 0 9.408 0.256 0.768 0.64 1.472 0.704 2.24 2.112 19.264 11.328 35.136 23.744 49.408 16.768 19.264 37.376 33.536 59.456 45.952 39.616 22.208 82.112 37.12 125.888 48.768 81.344 21.568 164.416 30.912 248.448 32.576 59.008 1.152 117.76-2.048 176.32-9.92 48.192-6.464 95.744-15.936 142.336-30.208 43.456-13.376 85.44-30.08 123.2-55.936 19.52-13.312 36.992-28.8 49.088-49.536 9.92-17.152 13.632-35.392 8.832-54.976C985.344 701.056 974.656 686.208 961.344 673.088z" p-id="3585"></path><path d="M103.04 437.696C132.928 459.584 166.208 474.88 201.024 487.04c72 25.152 146.624 37.312 222.464 43.008 28.16 2.112 56.512 2.688 84.736 3.968 46.912-0.576 93.76-2.816 140.352-8.32 44.032-5.248 87.68-12.928 130.56-24.512 46.592-12.544 91.392-29.056 132.032-55.424 24.512-15.872 46.016-35.008 61.312-60.288 16.96-27.968 23.296-58.112 17.088-90.368-5.504-28.416-19.904-52.352-40.128-72.768-26.944-27.264-59.648-45.632-94.528-60.544-45.76-19.52-93.632-31.68-142.4-40.768-51.136-9.472-102.656-14.592-154.624-16.512C496.64 102.208 435.456 104.32 374.528 111.744c-39.872 4.8-79.36 11.712-118.336 21.632C211.264 144.896 167.68 159.936 127.424 183.424c-27.328 15.936-52.032 35.008-69.76 61.568C29.952 286.528 25.856 330.24 47.872 375.552 60.416 401.28 80.192 420.992 103.04 437.696zM205.44 297.344c33.152-17.152 68.608-27.392 104.832-35.584C352.128 252.352 394.496 246.976 437.248 243.84 485.056 240.32 532.864 240.128 580.672 243.2c59.712 3.84 118.656 12.096 176.192 29.248 28.608 8.512 56.64 18.88 81.6 35.712 4.48 3.008 8.64 6.656 13.12 10.112-9.6 9.344-20.288 15.808-31.424 21.504-32.064 16.448-66.24 26.688-101.184 34.688-43.968 10.112-88.512 15.808-133.44 18.944C539.456 396.672 493.312 396.864 447.232 393.984 387.456 390.208 328.192 382.08 270.592 365.056 241.28 356.416 212.672 345.92 187.136 328.768c-3.136-2.112-6.08-4.48-9.024-6.784C176.96 321.024 175.872 319.872 174.528 318.528 183.616 309.44 194.368 303.104 205.44 297.344z" p-id="3586"></path></svg>