<?xml version="1.0" standalone="no"?><!DOCTYPE svg PUBLIC "-//W3C//DTD SVG 1.1//EN" "http://www.w3.org/Graphics/SVG/1.1/DTD/svg11.dtd"><svg t="1542957395460" class="icon" style="" viewBox="0 0 1024 1024" version="1.1" xmlns="http://www.w3.org/2000/svg" p-id="4476" xmlns:xlink="http://www.w3.org/1999/xlink" width="200" height="200"><defs><style type="text/css"></style></defs><path d="M325.973333 606.828606c-6.578424 0-11.915636 3.134061-11.915636 7.012849v41.270303c0 3.909818 5.337212 7.012848 11.915636 7.012848h206.848c6.578424 0 11.915636-3.10303 11.915637-7.012848v-41.270303c0-3.878788-5.337212-7.012848-11.915637-7.012849h-206.848z m0-113.477818c-6.578424 0-11.915636 3.196121-11.915636 7.13697v41.05309c0 3.940848 5.337212 7.13697 11.915636 7.13697h206.848c6.578424 0 11.915636-3.196121 11.915637-7.13697V500.518788c0-3.940848-5.337212-7.13697-11.915637-7.13697h-206.848z m0-108.326788c-6.578424 0-11.915636 3.134061-11.915636 7.012848v41.270304c0 3.878788 5.337212 7.043879 11.915636 7.043878h206.848c6.578424 0 11.915636-3.165091 11.915637-7.043878v-41.270304c0-3.878788-5.337212-7.012848-11.915637-7.012848h-206.848z m-128.217212 221.804606c-6.578424 0-11.915636 3.134061-11.915636 7.012849v41.270303c0 3.909818 5.337212 7.012848 11.915636 7.012848h71.493818c6.578424 0 11.915636-3.10303 11.915637-7.012848v-41.270303c0-3.878788-5.337212-7.012848-11.915637-7.012849H197.756121z m0-113.477818c-6.578424 0-11.915636 3.196121-11.915636 7.13697v41.05309c0 3.940848 5.337212 7.13697 11.915636 7.13697h71.493818c6.578424 0 11.915636-3.196121 11.915637-7.13697V500.518788c0-3.940848-5.337212-7.13697-11.915637-7.13697H197.756121z m0-108.326788c-6.578424 0-11.915636 3.134061-11.915636 7.012848v41.270304c0 3.878788 5.337212 7.043879 11.915636 7.043878h71.493818c6.578424 0 11.915636-3.165091 11.915637-7.043878v-41.270304c0-3.878788-5.337212-7.012848-11.915637-7.012848H197.756121zM684.249212 124.121212C715.962182 124.121212 744.727273 141.994667 744.727273 170.666667s-28.765091 47.321212-60.509091 47.321212H279.272727c18.121697-32.271515 18.121697-61.564121 0-93.866667h404.945455z m-208.213333 646.516364l-102.275879 94.363151-102.275879-94.332121a32.985212 32.985212 0 0 0-44.373333 0l-98.521212 90.918788-42.852849-59.640242V166.012121c0-28.672 25.165576-57.530182 69.414788-57.530182 27.430788 0.062061 62.060606 14.491152 62.060606 55.016728 0 40.494545-34.567758 58.026667-66.280727 58.026666-17.656242 0-30.285576 8.843636-30.285576 25.693091 0 16.880485 12.629333 26.468848 30.254546 26.468849h509.517575v250.631757h86.822788V275.052606c51.479273-13.094788 74.814061-59.485091 74.814061-111.553939C822.054788 111.429818 782.273939 62.060606 715.310545 62.060606H119.994182C53.061818 62.060606 0 103.610182 0 166.012121v661.47297c0 8.347152 3.506424 16.290909 9.743515 22.031515l96.628364 89.150061c12.350061 11.419152 31.992242 11.419152 44.373333 0l98.552243-90.918788 102.275878 94.332121c12.412121 11.450182 31.992242 11.450182 44.373334 0l102.275878-94.332121 66.311758 61.129697v-97.528243l-44.156121-40.711757a32.985212 32.985212 0 0 0-44.342303 0z" p-id="4477"></path><path d="M744.727273 930.567758c-69.818182-3.165091-124.121212-27.275636-124.121212-56.537213v-227.576242C620.606061 615.051636 683.132121 589.575758 760.242424 589.575758s139.636364 25.444848 139.636364 56.878545v129.644606c69.818182 3.165091 124.121212 27.275636 124.121212 56.537212v103.455031C1024 967.493818 961.473939 992.969697 884.363636 992.969697s-139.636364-25.444848-139.636363-56.878545v-5.523394z m0.06206-99.607273a216.932848 216.932848 0 0 1-47.041939-7.912727A141.125818 141.125818 0 0 1 660.573091 806.787879c-5.771636 5.585455-8.936727 11.201939-8.936727 16.228848 0 5.026909 3.165091 10.705455 8.936727 16.259879 3.847758 3.599515 7.943758 6.640485 12.225939 9.153939 5.182061 3.10303 10.488242 5.709576 15.918546 7.881697 14.894545 5.988848 33.82303 10.550303 56.009697 12.039758v-35.684848c0-0.589576 0-1.148121 0.06206-1.737697zM660.573091 682.666667c-5.771636 5.585455-8.936727 11.201939-8.936727 16.228848 0 5.026909 3.165091 10.705455 8.936727 16.259879 3.847758 3.599515 7.943758 6.640485 12.225939 9.153939 5.182061 3.10303 10.488242 5.709576 15.918546 7.881697 18.245818 7.354182 42.604606 12.536242 71.524848 12.536243 28.889212 0 53.248-5.15103 71.524849-12.536243 5.430303-2.172121 10.736485-4.778667 15.949575-7.881697 4.251152-2.482424 8.378182-5.585455 12.19491-9.153939 5.771636-5.585455 8.936727-11.23297 8.936727-16.259879 0-4.995879-3.165091-10.674424-8.967758-16.228848-10.550303 6.826667-23.272727 12.225939-37.174303 16.228848-13.032727 3.692606-26.220606 6.11297-39.501576 7.323152a238.188606 238.188606 0 0 1-85.457454-7.323152A141.125818 141.125818 0 0 1 660.573091 682.666667z m124.121212 186.181818c-5.771636 5.585455-8.936727 11.201939-8.936727 16.228848 0 5.026909 3.165091 10.705455 8.936727 16.259879 3.847758 3.599515 7.943758 6.640485 12.225939 9.15394 5.182061 3.10303 10.488242 5.709576 15.918546 7.881696 18.245818 7.354182 42.604606 12.536242 71.524848 12.536243 28.889212 0 53.248-5.15103 71.524849-12.536243 5.430303-2.172121 10.736485-4.778667 15.949576-7.881696 4.251152-2.482424 8.378182-5.585455 12.194909-9.15394 5.771636-5.585455 8.936727-11.23297 8.936727-16.259879 0-4.995879-3.165091-10.674424-8.967758-16.228848-10.550303 6.826667-23.272727 12.225939-37.174303 16.228848-13.032727 3.692606-26.220606 6.11297-39.501575 7.323152a238.188606 238.188606 0 0 1-85.457455-7.323152A141.125818 141.125818 0 0 1 784.694303 868.848485z" p-id="4478"></path></svg>