<?xml version="1.0" standalone="no"?><!DOCTYPE svg PUBLIC "-//W3C//DTD SVG 1.1//EN" "http://www.w3.org/Graphics/SVG/1.1/DTD/svg11.dtd"><svg t="1542957094329" class="icon" style="" viewBox="0 0 1024 1024" version="1.1" xmlns="http://www.w3.org/2000/svg" p-id="2042" xmlns:xlink="http://www.w3.org/1999/xlink" width="200" height="200"><defs><style type="text/css"></style></defs><path d="M928.5 597.2c-0.7-3.4-1.6-6.5-2.8-9-4-8.6-9.7-16.9-17-24.8-7.3-7.9-14-13.4-20-16.6-2.9-1.4-6.2-2.7-10.1-3.9-3.9-1.2-7.9-1.8-12.1-1.9-4.2-0.1-8.4 0.4-12.7 1.7-4.3 1.3-8.5 3.5-12.5 6.7-3.2 2.6-7.1 6.1-11.8 10.6-4.7 4.4-8.8 8.3-12.3 11.4l80.5 80.5c2-1.7 4.2-3.7 6.5-6 2-2 4.4-4.3 7.1-6.9 2.7-2.6 5.8-5.6 9.3-9 3.2-3.4 5.5-7 6.9-10.8 1.4-3.7 2.1-7.5 2.1-11.2 0-3.7-0.4-7.3-1.1-10.8zM625.9 762.2c-9.5 9.5-17.4 17.4-23.7 23.9-6.3 6.5-10.3 10.6-12.1 12.3-4 4-7.1 7.7-9.3 11-2.1 3.3-4.1 7-5.8 11-1.4 2.6-3.3 7.3-5.6 14.2-2.3 6.9-4.7 14.4-7.1 22.6-2.4 7.9-4.7 15.8-6.9 23.7-2.2 7.6-3.5 13.4-4.1 17.4-1.1 7.5-0.4 12.8 2.2 15.9 2.6 3.2 7.7 4.3 15.5 3.4 3.7-0.6 9.4-1.9 17-3.9s15.6-4.4 24.1-7.1c8.5-2.7 16.6-5.5 24.3-8.4 7.7-2.9 13.6-5.3 17.7-7.3 4-1.7 7.9-4 11.6-6.9 3.7-2.9 7-5.6 9.9-8.2 1.2-0.9 4.7-4.3 10.8-10.3 6-6 13.6-13.7 22.8-23 9.2-9.3 19.5-19.6 31-30.8l34.5-34.9 92.6-92.6-80.5-81-158.9 159zM635.9 630.2c16.1 0 29.1-13 29.1-29.1S652 572 635.9 572H500.3v-68.3h135.6c16.1 0 29.1-13 29.1-29.1s-13-29.1-29.1-29.1H514.8L640.9 327c11.7-11 12.3-29.4 1.3-41.2-11-11.7-29.5-12.3-41.2-1.3L471.2 406.4 341.4 284.5c-11.7-11-30.2-10.4-41.2 1.3-11 11.7-10.4 30.2 1.3 41.2l126.1 118.4H306.5c-16.1 0-29.1 13-29.1 29.1s13 29.1 29.1 29.1h135.6V572H306.5c-16.1 0-29.1 13-29.1 29.1s13 29.1 29.1 29.1h135.6v69.3c0 16.1 13 29.1 29.1 29.1s29.1-13 29.1-29.1v-69.3h135.6z" p-id="2043"></path><path d="M390.7 859.7H206.8c-27.1 0-49.2-19.2-49.2-42.8V217.1c0-23.6 22.1-42.8 49.2-42.8h513.4c27.1 0 49.2 19.2 49.2 42.8v220.3c0 16.1 13 29.1 29.1 29.1s29.1-13 29.1-29.1V217.1c0-55.7-48.2-101.1-107.4-101.1H206.8c-59.2 0-107.4 45.3-107.4 101.1V817c0 55.7 48.2 101.1 107.4 101.1h183.9c16.1 0 29.1-13 29.1-29.1s-13-29.3-29.1-29.3z" p-id="2044"></path></svg>