<?xml version="1.0"?>
<svg width="1024" height="1024" xmlns="http://www.w3.org/2000/svg" xmlns:svg="http://www.w3.org/2000/svg" class="icon">
 <defs>
  <style type="text/css"/>
 </defs>
 <g class="layer">
  <title>Layer 1</title>
  <path id="svg_1" d="m514.015255,10.506777c-275.64892,0 -499.107694,223.457397 -499.107694,499.107694s223.458774,499.106331 499.107694,499.106331s499.107694,-223.457411 499.107694,-499.107694s-223.457397,-499.106331 -499.107694,-499.106331zm0.381536,822.767629c-28.134044,0 -50.940233,-22.806189 -50.940233,-50.940246c0,-28.134058 22.806189,-50.940233 50.940233,-50.940233s50.940246,22.806175 50.940246,50.940233c0,28.132695 -22.807552,50.940246 -50.940246,50.940246zm-0.211963,-169.76571c-50.736476,0 -91.753973,-351.179967 -91.753973,-396.215243c0,-45.033899 41.129633,-81.54131 91.867485,-81.54131s91.867471,36.507398 91.867471,81.54131c-0.001363,45.035276 -41.244494,396.215243 -91.980983,396.215243z"/>
  <g id="svg_5"/>
 </g>
</svg>
