<?xml version="1.0" standalone="no"?><!DOCTYPE svg PUBLIC "-//W3C//DTD SVG 1.1//EN" "http://www.w3.org/Graphics/SVG/1.1/DTD/svg11.dtd"><svg t="1543974272964" class="icon" style="" viewBox="0 0 1024 1024" version="1.1" xmlns="http://www.w3.org/2000/svg" p-id="19715" xmlns:xlink="http://www.w3.org/1999/xlink" width="200" height="200"><defs><style type="text/css"></style></defs><path d="M329.5232 848.0256c-84.8384 0-153.5488-70.4-153.4976-157.2864 0-86.8352 68.6592-157.2352 153.4976-157.2352 46.4896 0 153.8048 1.024 153.8048 1.024s-0.256 117.0432-0.256 156.2112c0 86.8864-68.7616 157.2864-153.6 157.2864zM176.0256 333.2096c0-86.8352 68.6592-157.2352 153.4976-157.2864 84.7872 0 153.5488 70.4512 153.5488 157.2864 0 39.2192 0.256 156.2624 0.256 156.2624s-107.3152 1.024-153.8048 1.024c-84.8384 0-153.4976-70.4-153.4976-157.2864z m655.9744 357.4784c0 86.8864-68.7616 157.2864-153.5488 157.2864-84.7872 0-153.5488-70.4-153.5488-157.2864 0-39.168-0.3072-156.2112-0.3072-156.2112s107.3152-1.024 153.856-1.024c84.7872 0 153.5488 70.4 153.5488 157.2352z m-150.1696-200.192c-46.5408 0-153.856-1.024-153.856-1.024s0.3072-117.0432 0.3072-156.2624c0-86.8352 68.7616-157.2352 153.6-157.2864 84.736 0 153.4976 70.4512 153.4976 157.2864 0 86.8864-68.7616 157.2864-153.5488 157.2864z m-1.6896-16.384c75.008 0 135.8336-62.2592 135.8336-139.1616 0-76.8-60.8256-139.1616-135.8336-139.1616-75.0592 0-135.8848 62.3104-135.8848 139.1616 0 34.7136-0.256 138.24-0.256 138.24s94.976 0.9216 136.1408 0.9216z" p-id="19716" fill="#e6e6e6"></path></svg>