<?xml version="1.0" standalone="no"?><!DOCTYPE svg PUBLIC "-//W3C//DTD SVG 1.1//EN" "http://www.w3.org/Graphics/SVG/1.1/DTD/svg11.dtd"><svg t="1526457895999" class="icon" style="" viewBox="0 0 1028 1024" version="1.1" xmlns="http://www.w3.org/2000/svg" p-id="810" xmlns:xlink="http://www.w3.org/1999/xlink" width="200.78125" height="200"><defs><style type="text/css"></style></defs><path d="M4.654545 365.381818C16.290909 325.818182 27.927273 286.254545 55.854545 256c37.236364-39.563636 81.454545-60.509091 139.636364-62.836364v55.854546c-27.927273 11.636364-53.527273 20.945455-76.8 34.909091-30.254545 20.945455-46.545455 53.527273-48.872727 90.763636 0 67.490909-4.654545 132.654545 0 200.145455 6.981818 79.127273 51.2 139.636364 116.363636 183.854545 62.836364 41.890909 134.981818 62.836364 209.454546 69.818182 125.672727 11.636364 249.018182 2.327273 365.381818-51.2 53.527273-25.6 102.4-58.181818 139.636363-104.727273 39.563636-46.545455 67.490909-95.418182 60.509091-160.581818-4.654545-37.236364 0-74.472727 0-111.709091 0-86.109091-37.236364-132.654545-125.672727-146.618182V195.490909c58.181818-6.981818 130.327273 34.909091 162.909091 90.763636 18.618182 32.581818 27.927273 69.818182 27.927273 107.054546 0 46.545455-2.327273 93.090909 0 139.636364 6.981818 104.727273-44.218182 181.527273-123.345455 242.036363-95.418182 72.145455-204.8 102.4-321.163636 114.036364-6.981818 0-13.963636 2.327273-20.945455 2.327273 9.309091 32.581818 32.581818 65.163636 0 97.745454-27.927273 27.927273-60.509091 37.236364-100.072727 27.927273 11.636364-9.309091 23.272727-16.290909 32.581818-23.272727 20.945455-13.963636 25.6-34.909091 18.618182-58.181819-9.309091-37.236364-11.636364-39.563636-51.2-41.890909-97.745455-2.327273-193.163636-16.290909-281.6-62.836363C86.109091 781.963636 23.272727 712.145455 4.654545 605.090909c0-4.654545-2.327273-6.981818-4.654545-11.636364 4.654545-74.472727 4.654545-151.272727 4.654545-228.072727z" p-id="811"></path><path d="M328.145455 2.327273v188.509091h379.345454V2.327273h67.490909V256h-512V2.327273h65.163637zM556.218182 363.054545c16.290909 16.290909 30.254545 30.254545 44.218182 46.545455-37.236364 32.581818-74.472727 65.163636-116.363637 104.727273h155.927273c9.309091 39.563636 2.327273 69.818182-30.254545 95.418182-46.545455 34.909091-88.436364 76.8-132.654546 116.363636-13.963636-16.290909-27.927273-30.254545-41.890909-46.545455 34.909091-30.254545 72.145455-62.836364 114.036364-100.072727h-155.927273c-6.981818-39.563636-4.654545-69.818182 30.254545-95.418182 44.218182-39.563636 88.436364-81.454545 132.654546-121.018182z" p-id="812"></path></svg>