<?xml version="1.0" standalone="no"?><!DOCTYPE svg PUBLIC "-//W3C//DTD SVG 1.1//EN" "http://www.w3.org/Graphics/SVG/1.1/DTD/svg11.dtd"><svg t="1545202340561" class="icon" style="" viewBox="0 0 1027 1024" version="1.1" xmlns="http://www.w3.org/2000/svg" p-id="7623" xmlns:xlink="http://www.w3.org/1999/xlink" width="200.5859375" height="200"><defs><style type="text/css"></style></defs><path d="M403.269632 110.592a742.912 742.912 0 0 1 219.648 0c51.2 10.24 102.4 18.432 150.528 31.744a107.52 107.52 0 0 1 75.776 71.168q31.232 88.064 65.536 174.592c4.096 9.728 16.384 24.064 23.552 23.04A75.776 75.776 0 0 1 1025.349632 471.552a66.048 66.048 0 0 1 0 31.744l-58.368 15.872a516.096 516.096 0 0 1 7.168 61.44v283.648a80.896 80.896 0 0 1-17.408 47.104 479.232 479.232 0 0 1-163.84 3.072c-37.888-24.064-14.336-64.512-26.624-97.28H268.613632c-9.728 34.816-15.36 93.184-26.624 97.28a486.4 486.4 0 0 1-167.936 0 91.648 91.648 0 0 1-18.432-54.272C52.549632 819.2 52.549632 780.288 52.549632 740.352c0-74.24 0-148.48 3.072-223.232L1.349632 502.784a58.88 58.88 0 0 1 0-25.088C16.709632 436.736 37.189632 404.992 89.925632 409.6c6.144 0 17.92-12.288 21.504-21.504a1378.304 1378.304 0 0 0 51.2-139.776 174.08 174.08 0 0 1 153.6-126.464c28.16-5.12 57.344-8.704 85.504-13.312zM176.965632 427.008a1617.408 1617.408 0 0 0 669.696 0c-18.944-56.832-37.888-107.52-51.2-158.72a84.992 84.992 0 0 0-84.992-68.096c-105.984-4.608-212.48-8.192-318.464-9.216a453.12 453.12 0 0 0-102.4 15.872 58.368 58.368 0 0 0-37.376 25.6C223.557632 294.4 202.053632 358.4 176.965632 427.008z m43.52 241.664A249.856 249.856 0 0 0 275.269632 665.6a51.2 51.2 0 0 0 33.28-25.088c2.56-7.68-9.216-26.624-19.456-31.232a1196.544 1196.544 0 0 0-128-51.2c-21.504-7.168-46.08-5.632-51.2 24.576-10.24 44.544 0 69.12 33.28 76.288 26.112 5.12 51.2 6.144 79.872 8.704z m590.336 0a730.624 730.624 0 0 0 80.384-10.24c38.4-8.704 30.208-39.936 29.184-67.072s-15.36-39.936-36.352-33.792a1110.016 1110.016 0 0 0-153.6 58.368c-22.528 10.752-14.336 40.448 11.264 46.08a576.512 576.512 0 0 0 69.12 6.144z" p-id="7624" fill="#e6e6e6"></path></svg>