<?xml version="1.0" standalone="no"?><!DOCTYPE svg PUBLIC "-//W3C//DTD SVG 1.1//EN" "http://www.w3.org/Graphics/SVG/1.1/DTD/svg11.dtd"><svg t="1526884230511" class="icon" style="" viewBox="0 0 1024 1024" version="1.1" xmlns="http://www.w3.org/2000/svg" p-id="2000" xmlns:xlink="http://www.w3.org/1999/xlink" width="200" height="200"><defs><style type="text/css"></style></defs><path d="M909.76 298.208l-45.696 45.696c-48.704 48.704-127.936 48.704-176.64 0s-48.704-127.936 0-176.64c0 0 20.48-20.416 45.696-45.696 25.216-25.216 8.384-54.912-37.056-47.872-46.272 7.232-90.752 28.544-126.336 64.128-56.704 56.704-77.248 136-61.952 209.152l-383.168 383.232c-48.704 48.64-48.704 127.872 0 176.576s127.936 48.704 176.576 0l383.232-383.232c73.152 15.296 152.384-5.248 209.088-61.888 35.584-35.584 56.96-80.064 64.128-126.336 7.04-45.44-22.656-62.336-47.872-37.12zM242.304 847.904c-16.256 16.256-42.624 16.256-58.88 0s-16.256-42.56 0-58.88c16.256-16.256 42.56-16.256 58.88 0s16.32 42.624 0 58.88zM200.704 305.824l144.256 144.32 58.88-58.88-144.256-144.32-32.32-61.76-103.04-73.6-58.88 58.88 73.6 103.04zM683.52 612c-8.128-8.128-21.312-8.128-29.44 0l-88.32 88.32c-8.128 8.128-8.128 21.312 0 29.44l208.32 208.32c32.512 32.448 85.312 32.448 117.76 0 32.512-32.448 32.512-85.248 0-117.76l-208.32-208.32z" p-id="2001"></path></svg>