<?xml version="1.0" standalone="no"?><!DOCTYPE svg PUBLIC "-//W3C//DTD SVG 1.1//EN" "http://www.w3.org/Graphics/SVG/1.1/DTD/svg11.dtd"><svg t="1545202401334" class="icon" style="" viewBox="0 0 1024 1024" version="1.1" xmlns="http://www.w3.org/2000/svg" p-id="8519" xmlns:xlink="http://www.w3.org/1999/xlink" width="200" height="200"><defs><style type="text/css"></style></defs><path d="M317.9 338l139.2-104.9c38.2-28.2 88.7-35.5 132.7-18.6l221.4 83.9c14.7 5.7 30.1 8.1 44.8 8.1h36.6c10.6 0 19.5 8.1 19.5 18.6v269.6c0 10.5-9 19.4-19.5 19.4h-48c-6.5 0-13.8 2.4-18.7 6.5l-10.6 8.9c-2.4 2.4-6.5 1.6-9-0.8l-258-311.6c-6.5-8.1-17.9-9.7-26.9-4.8l-118 65.4c-23.6 12.9-52.1 14.5-77.3 4-13-5.7-19.5-21-13.8-34.7-0.1-3.3 2.3-6.5 5.6-9zM135.6 613.3h41.5l29.3-35.5c26-31.5 73.2-35.5 105-9.7 11.4 9.7 20.3 22.6 24.4 37.1 25.2 6.5 44.8 25.8 52.1 50.9 17.9 5.6 34.2 17 43.1 33.9 15.5 2.4 30.1 9.7 41.5 21 23.6 25 28.5 62.2 10.6 92l-4.1 7.3v0.8c19.5 12.9 45.6 8.9 59.4-10.5 6.5-9.7 9-21 6.5-32.3v-0.8h0.8l3.3 3.2c14.7 14.5 38.3 17 55.3 5.6 13.8-9.7 20.3-26.6 17.1-42.8v-0.8h0.8l3.3 3.2c14.6 14.5 37.4 16.9 55.3 5.6 13.8-9.7 21.2-26.6 17.9-42.8v-0.7h0.8l3.3 3.2c13.8 13.7 35.8 16.1 52.1 6.5 20.3-12.1 26.9-37.9 14.7-58.1-1.6-2.4-3.3-4.8-4.9-6.5l-26-31.5-210.8-254.2c-2.4-2.4-5.7-3.2-9-1.6L418 411.5c-32.6 17.8-70.8 21-105.8 8.1-19.5-6.5-34.2-21.8-41.5-40.4-5.7-19.4-3.3-40.4 7.3-57.3 2.4-4.8 0.8-10.5-4.1-12.9-1.6-0.8-3.3-0.8-4.9-0.8H131.5c-10.6 0-19.5 8.1-19.5 18.6v268.8c4.1 9.6 13 17.7 23.6 17.7z m146.5-19.4c-16.3-8.9-35.8-4.8-47.2 9.7l-28.5 34.7c-12.2 15.3-10.6 37.9 4.9 50h0.8l4.1 3.2c11.4 8.9 27.7 9.7 39.9 3.2 0.8-0.8 1.6 0 2.4 0.8v1.6c-2.4 12.9 2.4 26.6 13 34.7l3.3 2.4c11.4 8.9 26 9.7 39.1 4 0.8-0.8 2.4 0 2.4 0.8v0.8c-1.6 12.1 4.1 24.2 13.8 32.3l2.4 1.6c11.4 8.9 26 10.5 39.1 3.2 0.8-0.8 2.4 0 2.4 0.8v0.8c1.6 8.9 6.5 17 13.8 22.6l1.6 0.8c16.3 12.1 39.1 9.7 51.3-6.5 0.8-1.6 2.4-3.2 3.3-4l4.9-8.9c9-15.3 6.5-33.9-6.5-46-10.6-9.7-26-12.1-39.9-6.5-0.8 0-0.8 0-1.6-0.8v-0.8c0.8-19.4-14.7-36.3-34.2-37.9-4.9 0-9.8 0.8-14.7 2.4-5.7 0.8-4.1-4-4.1-4 7.3-18.6-0.8-38.7-19.5-46.8-9.8-4-22-3.2-30.9 1.6-4.1 0.8-3.3-3.2-3.3-3.2 10.7-15.1 5-36.9-12.1-46.6z m0 0" p-id="8520" fill="#e6e6e6"></path></svg>