<?xml version="1.0" standalone="no"?><!DOCTYPE svg PUBLIC "-//W3C//DTD SVG 1.1//EN" "http://www.w3.org/Graphics/SVG/1.1/DTD/svg11.dtd"><svg t="1545202149914" class="icon" style="" viewBox="0 0 1024 1024" version="1.1" xmlns="http://www.w3.org/2000/svg" p-id="6318" xmlns:xlink="http://www.w3.org/1999/xlink" width="200" height="200"><defs><style type="text/css"></style></defs><path d="M483.4 583.8c64.5-109 198.5-152.3 313-101.2V147.5c0-22.6-17.7-40.7-39.5-40.7H139c-21.6 0-39.5 18.2-39.5 40.7v658.2c0.2 16.9 8.4 32.8 22 42.6 1.4 2.1 3 3.9 4.9 5.6l59.5 53.9c7.2 6.4 16.4 9.8 26 9.7 9.6 0.1 18.9-3.4 26.1-9.8l51.3-46.4 50.7 46c7.2 6.4 16.4 9.8 25.9 9.7 9.6 0.1 18.9-3.4 26.2-9.8l50.8-46 56.7 46c11.8 9.7 27.9 11.9 41.8 5.7-97.6-79.4-122.5-220.2-58-329.1zM230.5 263.2h314.1c17.3 0 31.4 12.7 31.4 28.4S561.9 320 544.6 320H230.5c-17.3 0-31.4-12.7-31.4-28.4 0-15.6 14.1-28.4 31.4-28.4z m125.7 398.2H230.5c-17.3 0-31.4-12.7-31.4-28.4s14.1-28.4 31.4-28.4h125.6c17.3 0 31.4 12.7 31.4 28.4 0.1 15.7-14 28.4-31.3 28.4zM230.5 490.8c-17.3 0-31.4-12.7-31.4-28.4s14.1-28.4 31.4-28.4h314.1c17.3 0 31.4 12.7 31.4 28.4s-14.1 28.4-31.4 28.4H230.5z" fill="#e6e6e6" p-id="6319"></path><path d="M718.2 519.2c-113.9 0-206.2 89.1-206.2 199.1s92.3 199.1 206.2 199.1c113.9 0 206.2-89.1 206.2-199.1 0-109.9-92.3-199.1-206.2-199.1z m97.3 229.5c9.5 0 17.1 7.4 17.1 16.5s-7.7 16.5-17.1 16.5h-68.7v38.5c0 9.2-7.7 16.6-17.2 16.6s-17.2-7.4-17.2-16.6v-38.5h-68.8c-9.5 0-17.1-7.4-17.1-16.5s7.7-16.5 17.1-16.5h68.8v-33h-68.7c-9.1-0.5-16.2-7.7-16.2-16.5s7.1-16 16.2-16.5h41.6L640.8 640c-3.2-3.1-5.1-7.3-5.1-11.7 0-4.4 1.8-8.6 5.1-11.7 6.7-6.5 17.6-6.5 24.3 0l63 60.6 63.1-60.6c6.7-6.4 17.5-6.4 24.2 0 3.2 3.1 5.1 7.3 5.1 11.7 0 4.4-1.8 8.6-5.1 11.7l-44.3 42.7h44.4c6.4-0.5 12.6 2.5 15.9 7.8 3.4 5.3 3.4 12 0 17.3-3.4 5.3-9.5 8.3-15.9 7.8h-68.7v33.1h68.7z" fill="#e6e6e6" p-id="6320"></path></svg>