<?xml version="1.0" standalone="no"?><!DOCTYPE svg PUBLIC "-//W3C//DTD SVG 1.1//EN" "http://www.w3.org/Graphics/SVG/1.1/DTD/svg11.dtd"><svg t="1545202685107" class="icon" style="" viewBox="0 0 1024 1024" version="1.1" xmlns="http://www.w3.org/2000/svg" p-id="15511" xmlns:xlink="http://www.w3.org/1999/xlink" width="200" height="200"><defs><style type="text/css"></style></defs><path d="M721.92 1024c-10.24 0-20.48-5.12-25.6-10.24L563.2 880.64c-15.36-15.36-15.36-40.96 0-56.32 5.12-5.12 15.36-10.24 25.6-10.24s20.48 5.12 25.6 10.24l102.4 102.4 235.52-235.52c5.12-5.12 15.36-10.24 25.6-10.24s20.48 5.12 25.6 10.24c15.36 15.36 15.36 40.96 0 56.32l-266.24 266.24c5.12 5.12-5.12 10.24-15.36 10.24zM71.68 71.68h732.16v363.52h71.68V71.68c0-40.96-30.72-71.68-71.68-71.68H71.68C30.72 0 0 30.72 0 71.68v732.16c0 40.96 30.72 71.68 71.68 71.68h291.84v-71.68H71.68V71.68z m0 0" fill="#e6e6e6" p-id="15512"></path><path d="M660.48 332.8V189.44H512v148.48H363.52V189.44H220.16v148.48h71.68V409.6H220.16v71.68h143.36v71.68H220.16v71.68h143.36v71.68H512v-71.68h148.48v-71.68H512V481.28h148.48V404.48h-71.68V332.8h71.68z m0 0" fill="#e6e6e6" p-id="15513"></path></svg>