<?xml version="1.0" standalone="no"?><!DOCTYPE svg PUBLIC "-//W3C//DTD SVG 1.1//EN" "http://www.w3.org/Graphics/SVG/1.1/DTD/svg11.dtd"><svg t="1545202033822" class="icon" style="" viewBox="0 0 1024 1024" version="1.1" xmlns="http://www.w3.org/2000/svg" p-id="3484" xmlns:xlink="http://www.w3.org/1999/xlink" width="200" height="200"><defs><style type="text/css"></style></defs><path d="M561.113069 619.776655 637.863081 619.776655 637.970528 569.157791 587.351664 569.157791 670.007175 416.968623 583.636039 416.968623 526.783193 542.91715 502.784616 543.025621 444.620915 416.968623 358.248755 416.968623 440.411033 569.157791 389.134183 569.157791 389.134183 619.886149 465.393008 619.886149 472.82835 635.302257 472.82835 659.792021 389.134183 659.792021 389.134183 710.521402 472.82835 710.521402 472.82835 783.991718 553.788244 783.991718 553.788244 710.521402 637.970528 710.521402 637.970528 659.792021 553.788244 659.792021 553.788244 635.302257 561.113069 619.776655ZM823.625902 175.892009l-55.977919 0 0 55.977919 27.989471 0 0 671.621441L232.617453 903.491369 232.617453 231.869928l27.989471 0 0-55.977919-55.976896 0c-15.361873 0-27.989471 12.573363-27.989471 27.989471l0 727.600383c0 15.468296 12.627598 27.988448 27.989471 27.988448l618.995873 0c15.360849 0 27.989471-12.519128 27.989471-27.988448L851.615373 203.88148C851.615373 188.465372 838.986751 175.892009 823.625902 175.892009zM738.101039 174.328397 626.113479 174.328397 626.113479 118.335129c0-30.786167-25.208125-55.993269-55.993269-55.993269L458.134697 62.34186c-30.785144 0-55.993269 25.207102-55.993269 55.993269l0 55.993269L290.154891 174.328397l0 111.986537 447.946149 0L738.101039 174.328397 738.101039 174.328397zM570.121234 174.328397 458.134697 174.328397 458.134697 118.335129l0.106424 0 111.772666 0 0.106424 0L570.12021 174.328397 570.121234 174.328397z" p-id="3485" fill="#e6e6e6"></path></svg>