<?xml version="1.0" standalone="no"?><!DOCTYPE svg PUBLIC "-//W3C//DTD SVG 1.1//EN" "http://www.w3.org/Graphics/SVG/1.1/DTD/svg11.dtd"><svg t="1545202097616" class="icon" style="" viewBox="0 0 1100 1024" version="1.1" xmlns="http://www.w3.org/2000/svg" p-id="5054" xmlns:xlink="http://www.w3.org/1999/xlink" width="214.84375" height="200"><defs><style type="text/css"></style></defs><path d="M1070.144 665.1136C1090.4064 693.824 1100.8256 724.0064 1100.8256 755.2384c0 75.6224-60.3776 145.1648-169.8432 195.584C828.5312 998.08 693.376 1024 550.2592 1024c-143.104 0-278.272-25.92-380.48-73.1776C60.4032 900.4032 0.0128 830.8608 0.0128 755.2384c0-31.2448 10.3808-61.4912 30.6688-90.176-20.0704-27.1872-30.6688-56.2432-30.6688-86.3488 0-33.536 12.9408-65.8176 38.3872-96.1024C13.2992 451.904 0.0128 418.624 0.0128 384c0-30.8864 10.5088-60.9408 31.1552-89.2928-20.4032-23.552-31.1552-48.8832-31.1552-75.2512 0-63.3344 61.1712-120.7552 172.1984-161.4848C273.728 20.48 408.1024 0 550.4256 0s276.6848 20.48 378.2016 57.8944C1039.6544 98.7008 1100.8256 156.1216 1100.8256 219.3664c0 26.4576-10.7904 51.84-31.2448 75.4176C1090.048 323.0976 1100.8256 353.2672 1100.8256 384c0 34.6752-13.3248 68.0192-38.4896 98.7776C1087.4496 512.96 1100.8256 545.5744 1100.8256 578.7136c0 30.1184-10.5984 59.2-30.6816 86.4z m-51.9552-327.2064c-24.704 15.7696-54.656 30.2208-89.5616 43.0208-101.5168 37.4144-235.8784 57.8944-378.2016 57.8944s-276.6976-20.48-378.2144-57.8944c-34.688-12.6976-64.4992-27.0336-89.1008-42.688C74.3424 353.3056 69.6064 368.64 69.6064 384c0 24.4224 11.008 48.4352 32.6272 71.6032 22.72 24.1792 57.088 47.1808 99.6224 66.3936 92.4672 41.9072 216.384 64.9856 348.7232 64.9856 132.2496 0 256.1024-23.0784 348.7232-64.9856 42.5344-19.2128 76.9024-42.2144 99.5456-66.3936 21.696-23.2448 32.704-47.3472 32.704-71.6032 0-15.6032-4.5056-30.9888-13.3632-46.0928zM69.6064 578.6368c0 23.6288 11.008 47.2576 32.6272 69.7088 22.72 23.6288 57.088 46.08 99.6224 64.832 92.4672 40.7936 216.384 63.3344 348.7232 63.3344 132.2496 0 256.1024-22.5408 348.7232-63.3344 42.5344-18.752 76.9024-41.2032 99.5456-64.832 21.4656-22.3744 32.3968-45.9136 32.3968-69.632 0-17.1136-5.7856-34.0992-17.088-50.7264-23.3728 17.408-51.0976 33.5616-83.1744 48.0512C828.7744 622.4256 693.5296 647.7952 550.4256 647.7952c-143.1168 0-278.3488-25.3696-380.5696-71.7568-32.0256-14.5024-59.7248-30.6304-83.072-48.0128-11.2896 16.64-17.1776 33.5744-17.1776 50.6112z m32.6272 249.4592c22.6432 24.6528 56.9984 48.0512 99.5456 67.7376 92.4672 42.5344 216.384 66.176 348.6464 66.176 132.2496 0 256.0128-23.6416 348.6336-66.176 42.5472-19.6864 76.9024-43.0848 99.5584-67.7376 21.696-23.6288 32.704-48.2048 32.704-72.8576 0-13.8368-3.8144-27.52-10.56-41.0368-24.64 18.8544-54.6432 36.2496-89.7792 51.7504C828.7744 811.0848 693.5296 835.8912 550.4256 835.8912c-143.1168 0-278.3488-24.8064-380.5696-69.9392-35.136-15.5264-65.1392-32.9344-89.792-51.7888-6.7712 13.568-10.5472 27.2896-10.5472 41.0752 0 24.7296 11.008 49.3056 32.7168 72.8576zM550.4256 60.096c-283.3024 0-480.8192 83.968-480.8192 159.36 0 75.3024 197.5168 159.3472 480.8192 159.3472 283.3024 0 480.8192-84.0448 480.8192-159.3472 0-75.392-197.5168-159.36-480.8192-159.36z" p-id="5055" fill="#e6e6e6"></path></svg>