<?xml version="1.0" standalone="no"?><!DOCTYPE svg PUBLIC "-//W3C//DTD SVG 1.1//EN" "http://www.w3.org/Graphics/SVG/1.1/DTD/svg11.dtd"><svg t="1545201923172" class="icon" style="" viewBox="0 0 1024 1024" version="1.1" xmlns="http://www.w3.org/2000/svg" p-id="1746" xmlns:xlink="http://www.w3.org/1999/xlink" width="200" height="200"><defs><style type="text/css"></style></defs><path d="M800.323 998.627 218.872 998.627c-52.602 0-135.1-66.15-135.1-135.02L83.772 314.524c0-57.977 59.385-135.005 122.8-135.005l73.54 0 0 130.797 458.126 0L738.238 179.52l64.34 0c63.43 0 132.845 58.667 132.845 135.47l0 552.744C935.423 947.508 863.758 998.627 800.323 998.627L800.323 998.627 800.323 998.627zM771.618 458.181c0-9.02-7.33-16.427-16.35-16.427L263.927 441.754c-9.022 0-16.347 7.408-16.347 16.427l0 32.755c0 9.035 7.325 16.345 16.347 16.345l491.341 0c9.02 0 16.35-7.307 16.35-16.345L771.618 458.181 771.618 458.181zM771.618 621.908c0-9.02-7.33-16.345-16.35-16.345L263.927 605.563c-9.022 0-16.347 7.325-16.347 16.345l0 32.755c0 9.12 7.325 16.425 16.347 16.425l491.341 0c9.02 0 16.35-7.305 16.35-16.425L771.618 621.908 771.618 621.908zM771.618 785.718c0-9.02-7.33-16.35-16.35-16.35L263.927 769.368c-9.022 0-16.347 7.33-16.347 16.35l0 32.755c0 9.035 7.325 16.345 16.347 16.345l491.341 0c9.02 0 16.35-7.31 16.35-16.345L771.618 785.718 771.618 785.718zM476.449 244.954 345.557 244.954 345.557 114.14l65.447 0c0-36.095 29.33-65.445 65.445-65.445l65.445 0c36.095 0 65.445 29.35 65.445 65.445l65.445 0 0 130.815L476.446 244.955 476.449 244.955zM509.206 103.872c-22.65 0-40.927 18.377-40.927 40.942 0 22.552 18.28 40.85 40.927 40.85 22.562 0 40.862-18.3 40.862-40.85C550.069 122.25 531.769 103.872 509.206 103.872L509.206 103.872 509.206 103.872z" p-id="1747" fill="#e6e6e6"></path></svg>