<?xml version="1.0" standalone="no"?><!DOCTYPE svg PUBLIC "-//W3C//DTD SVG 1.1//EN" "http://www.w3.org/Graphics/SVG/1.1/DTD/svg11.dtd"><svg t="1545202644493" class="icon" style="" viewBox="0 0 1024 1024" version="1.1" xmlns="http://www.w3.org/2000/svg" p-id="13761" xmlns:xlink="http://www.w3.org/1999/xlink" width="200" height="200"><defs><style type="text/css"></style></defs><path d="M611.759 848.72c-9.617 0-15.857-6.192-24.493-14.764-5.243-5.203-12.39-12.631-21.241-22.079-15.846-16.912-34.199-37.133-45.165-49.215-4.923-5.424-8.811-9.708-9.962-10.927-10.893-11.533-15.398-36.085-13.461-53.159 2.314-20.396 12.444-37.115 29.296-48.349 19.002-12.669 39.737-15.721 59.966-8.828 8.87 3.022 16.657 7.603 23.22 12.234 18.393-13.184 47.379-23.686 78.796-7.814 19.96 10.083 32.476 26.417 36.192 47.235 4.923 27.578-7.192 55.904-16.932 66.364l-0.826 0.891c-19.454 20.966-33.659 35.934-42.149 44.798-10.706 11.177-19.427 20.068-25.922 26.426-12.176 11.917-17.954 17.187-27.319 17.187z m-71.081-123.699c1.738 1.876 5.077 5.554 9.801 10.758 29.241 32.217 49.813 54.409 61.487 66.336 12.16-11.994 34.166-34.854 65.86-69.012l0.725-0.78c2.325-3.026 9.884-19.045 6.762-33.327-1.69-7.731-6.341-13.283-14.634-17.473-10.146-5.126-20.218-4.947-30.792 0.545-8.398 4.364-13.89 10.481-13.939 10.54l-12.799 15.061-15.9-13.191c-19.949-16.563-31.661-22.077-48.328-10.968-18.599 12.398-10.515 37.231-8.243 41.511zM510.623 514.51c-97.098 0-176.093-78.995-176.093-176.092 0-97.098 78.995-176.093 176.093-176.093s176.093 78.995 176.093 176.093c-0.001 97.097-78.996 176.092-176.093 176.092z m0-292.186c-64.014 0-116.093 52.079-116.093 116.093S446.609 454.51 510.623 454.51s116.093-52.079 116.093-116.092-52.08-116.094-116.093-116.094zM149.788 804.761H82.546c-16.568 0-30-13.432-30-30 0-77.837 27.935-150.436 78.658-204.424 26.873-28.604 58.882-50.563 94.215-65.104a158.724 158.724 0 0 1-13.421-13.364c-28.661-32.145-44.445-75.658-44.445-122.525 0-58.032 28.668-112.201 76.687-144.902 13.695-9.327 32.356-5.785 41.683 7.909 9.326 13.695 5.785 32.356-7.909 41.683-31.597 21.518-50.46 57.147-50.46 95.31 0 32.123 10.38 61.456 29.229 82.595 18.958 21.262 44.734 32.539 74.542 32.61 16.547 0.04 29.938 13.469 29.929 30.016-0.009 16.547-13.413 29.962-29.96 29.984-60.391 0.081-115.921 23.83-156.36 66.872-33.708 35.878-54.728 82.42-60.656 133.34h35.512c16.568 0 30 13.432 30 30s-13.434 30-30.002 30zM941.454 804.761h-67.241c-16.568 0-30-13.432-30-30s13.432-30 30-30h35.512c-5.929-50.92-26.948-97.462-60.656-133.34-40.439-43.042-95.97-66.791-156.36-66.872-16.547-0.022-29.951-13.438-29.96-29.984-0.009-16.546 13.382-29.976 29.929-30.016 29.808-0.071 55.584-11.348 74.541-32.61 18.849-21.14 29.229-50.473 29.229-82.595 0-38.163-18.863-73.792-50.46-95.31-13.694-9.326-17.235-27.988-7.909-41.683 9.325-13.693 27.986-17.235 41.683-7.909 48.019 32.701 76.687 86.87 76.687 144.902 0 46.867-15.784 90.38-44.445 122.525a158.724 158.724 0 0 1-13.421 13.364c35.332 14.54 67.342 36.5 94.215 65.104 50.724 53.988 78.658 126.587 78.658 204.424-0.002 16.569-13.434 30-30.002 30zM480.592 863.007H286.158c-13.958 0-27.374-5.899-36.808-16.186-9.472-10.327-14.209-24.271-12.998-38.256 4.819-55.651 25.972-108.062 61.17-151.565 34.705-42.893 80.712-74.338 133.047-90.937 15.791-5.008 32.656 3.733 37.666 19.527 5.009 15.793-3.733 32.656-19.527 37.666-41.1 13.034-77.25 37.753-104.541 71.483-25.368 31.353-41.446 68.589-46.844 108.267h183.269c16.568 0 30 13.432 30 30s-13.432 30.001-30 30.001z" p-id="13762" fill="#e6e6e6"></path></svg>