<?xml version="1.0" standalone="no"?><!DOCTYPE svg PUBLIC "-//W3C//DTD SVG 1.1//EN" "http://www.w3.org/Graphics/SVG/1.1/DTD/svg11.dtd"><svg t="1543975208275" class="icon" style="" viewBox="0 0 1024 1024" version="1.1" xmlns="http://www.w3.org/2000/svg" p-id="1876" xmlns:xlink="http://www.w3.org/1999/xlink" width="200" height="200"><defs><style type="text/css"></style></defs><path d="M896 112H128c-35.346 0-64 28.654-64 64v15.984h0.146v0.073l85.056 42.538c17.634 8.818 17.634 33.983 0 42.801L83.755 297.39c-9.985 3.05-17.161 12.141-17.171 22.581 0 0.433 0.011 0.866 0.033 1.299 0.518 9.965 7.563 18.407 17.105 21.322l65.48 20.003c17.634 8.818 17.634 33.983 0 42.801L83.755 425.39c-9.985 3.05-17.161 12.141-17.171 22.581 0 0.433 0.011 0.866 0.033 1.299 0.518 9.965 7.563 18.407 17.105 21.322l65.48 20.003c17.634 8.818 17.634 33.983 0 42.801L83.755 553.39c-9.985 3.05-17.161 12.141-17.171 22.581 0 0.433 0.011 0.866 0.033 1.299 0.518 9.965 7.563 18.407 17.105 21.322l65.48 20.003c17.634 8.818 17.634 33.983 0 42.801L83.755 681.39c-9.985 3.05-17.161 12.141-17.171 22.581 0 0.433 0.011 0.866 0.033 1.299 0.518 9.965 7.563 18.407 17.105 21.322l65.48 20.003c17.634 8.818 17.634 33.983 0 42.801l-85.056 42.532V832h-0.033c2.264 44.563 39.111 80 84.237 80H896c35.346 0 64-28.654 64-64V176c0-35.346-28.654-64-64-64zM320 870c0 5.523-4.477 10-10 10h-44c-5.523 0-10-4.477-10-10v-76c0-5.523 4.477-10 10-10h44c5.523 0 10 4.477 10 10v76z m0-128c0 5.523-4.477 10-10 10h-44c-5.523 0-10-4.477-10-10v-76c0-5.523 4.477-10 10-10h44c5.523 0 10 4.477 10 10v76z m0-128c0 5.523-4.477 10-10 10h-44c-5.523 0-10-4.477-10-10v-76c0-5.523 4.477-10 10-10h44c5.523 0 10 4.477 10 10v76z m0-128c0 5.523-4.477 10-10 10h-44c-5.523 0-10-4.477-10-10v-76c0-5.523 4.477-10 10-10h44c5.523 0 10 4.477 10 10v76z m0-128c0 5.523-4.477 10-10 10h-44c-5.523 0-10-4.477-10-10v-76c0-5.523 4.477-10 10-10h44c5.523 0 10 4.477 10 10v76z m0-128c0 5.523-4.477 10-10 10h-44c-5.523 0-10-4.477-10-10v-76c0-5.523 4.477-10 10-10h44c5.523 0 10 4.477 10 10v76z m440.634 262.756v48.34h-81.299v41.748h81.299v48.34h-81.299v70.068h-76.904v-70.068h-83.984v-48.34h83.984v-41.748h-83.984v-48.34h68.848l-90.82-169.678h81.055l66.406 152.1h0.977c2.113-5.695 5.451-13.916 10.01-24.658l54.932-127.441h76.904l-93.506 169.678h67.381z" p-id="1877" fill="#e6e6e6"></path></svg>