<?xml version="1.0" standalone="no"?><!DOCTYPE svg PUBLIC "-//W3C//DTD SVG 1.1//EN" "http://www.w3.org/Graphics/SVG/1.1/DTD/svg11.dtd"><svg t="1543972845623" class="icon" style="" viewBox="0 0 1024 1024" version="1.1" xmlns="http://www.w3.org/2000/svg" p-id="1798" xmlns:xlink="http://www.w3.org/1999/xlink" width="200" height="200"><defs><style type="text/css"></style></defs><path d="M922.7 121.7H101.3C80.7 121.7 64 138.4 64 159c0 20.6 16.7 37.3 37.3 37.3H120v560c0 20.6 16.7 37.3 37.3 37.3h149.4l-67.5 67.5c-14.6 14.6-14.6 38.2 0 52.8l3.6 3.6c14.6 14.6 38.2 14.6 52.8 0l123.9-123.9h190.1l123.9 123.9c14.6 14.6 38.2 14.6 52.8 0l3.6-3.6c14.6-14.6 14.6-38.2 0-52.8l-67.5-67.5h144.4c20.6 0 37.3-16.7 37.3-37.3v-560h18.7c20.6 0 37.3-16.7 37.3-37.3-0.1-20.6-16.8-37.3-37.4-37.3zM362.7 607c0 20.6-16.7 37.3-37.3 37.3-20.6 0-37.3-16.7-37.3-37.3V457.7c0-20.6 16.7-37.3 37.3-37.3 20.6 0 37.3 16.7 37.3 37.3V607z m186.6 0c0 20.6-16.7 37.3-37.3 37.3s-37.3-16.7-37.3-37.3V383c0-20.6 16.7-37.3 37.3-37.3s37.3 16.7 37.3 37.3v224z m186.7 0c0 20.6-16.7 37.3-37.3 37.3s-37.3-16.7-37.3-37.3V308.3c0-20.6 16.7-37.3 37.3-37.3s37.3 16.7 37.3 37.3V607z" p-id="1799" fill="#e6e6e6"></path></svg>