<?xml version="1.0" standalone="no"?><!DOCTYPE svg PUBLIC "-//W3C//DTD SVG 1.1//EN" "http://www.w3.org/Graphics/SVG/1.1/DTD/svg11.dtd"><svg t="1543974293784" class="icon" style="" viewBox="0 0 1024 1024" version="1.1" xmlns="http://www.w3.org/2000/svg" p-id="20268" xmlns:xlink="http://www.w3.org/1999/xlink" width="200" height="200"><defs><style type="text/css"></style></defs><path d="M828.863497 170.022487c0-3.864079-3.868077-11.591238-11.596236-19.320397-7.72616-7.729158-15.453319-19.320396-27.049555-30.913633-11.591238-11.593237-27.049554-27.049554-46.372949-42.505872-19.316398-15.456317-30.907637-27.049554-42.502873-38.639793-11.591238-7.730158-23.180478-15.459316-30.907637-23.186475-7.732157-3.86308-15.465313-7.72616-23.191472-11.593237-7.728159 0-11.591238-3.86308-19.317398-3.86308h-3.864079v131.382694c0 3.864079 0 11.590239 3.864079 19.320396 0 7.729158 3.86308 15.456317 7.726159 23.183476 3.86308 7.729158 7.732157 11.593237 11.591239 19.322396 3.868077 3.864079 11.596236 7.727159 19.322395 7.727159h158.430249v-15.456318c3.868077-3.864079 3.868077-11.593237 3.868078-15.457316z m-204.803199 85.012743c-15.453319-7.729158-27.049554-19.322395-34.776713-34.776714-7.72616-11.593237-15.459316-27.049554-19.322396-42.505872-3.86308-15.457317-7.72616-30.913634-7.726159-42.505871V3.86308H156.49671c-15.456317 0-30.913634 3.866078-46.369951 11.593237-15.456317 7.727159-27.049554 19.320396-38.642792 34.776714C56.026651 61.826268 48.300491 77.282585 40.570334 92.739902c-7.727159 15.456317-11.590239 30.912634-11.590239 46.369951v726.463896c0 19.322395 3.86308 34.776714 15.454318 50.231032 7.729158 15.459316 19.322395 30.918631 34.778713 42.50887 15.456317 11.590239 27.049554 23.185475 46.36995 30.913633 15.456317 7.72616 30.913634 11.596236 42.505872 11.596236h378.691764c-15.465313-23.191472-30.919631-50.237029-38.645791-81.148663-7.729158-27.049554-15.456317-57.963188-15.456317-88.876822v-15.459316-15.454318H229.916215c-19.320396 0-34.779712-7.732157-46.36995-19.322395-11.593237-11.591238-19.323395-27.049554-19.323395-46.367952 0-19.322395 7.730158-34.776714 19.323395-46.372949 11.590239-11.591238 27.049554-19.323395 46.36995-19.323395h309.13234c27.049554-42.502873 61.826268-73.416507 108.19422-100.467061 42.507871-23.185475 92.744899-38.639793 146.844008-38.639793h19.317398c7.732157 0 11.591238 0 19.317398 3.863079V266.625468H678.160407c-23.186475 0-38.64579-3.86308-54.100109-11.590238z m73.422504 212.529358c0 19.320396-7.732157 34.776714-19.322395 46.372949-11.596236 11.591238-27.049554 19.317398-46.37295 19.317398H229.916215c-19.320396 0-34.779712-7.72616-46.36995-19.317398-11.593237-11.595236-19.323395-27.051553-19.323395-46.372949 0-19.322395 7.730158-34.776714 19.323395-46.369951 11.590239-11.593237 27.049554-19.320396 46.36995-19.320397h398.009162c19.317398 0 34.776714 7.727159 46.366952 19.320397 15.458316 11.593237 23.190473 27.047555 23.190473 46.369951z m131.380695 139.107853c-54.099109 0-104.335138 30.918631-131.379695 73.421504-73.422504 3.864079-131.384693 65.690347-131.384693 139.107854 0 73.422504 54.094111 131.384693 123.652536 139.112851v50.236029c0 7.72616 3.864079 15.454318 11.591238 15.454319h7.72616c3.869077 0 11.596236-3.864079 15.460315-7.72716l88.875822-104.33014 3.86308-3.869077v54.100109c0 7.72616 3.869077 15.454318 11.596236 15.454318h7.727159c3.86308 0 11.590239-3.858082 15.454318-7.727159l100.471059-115.925377c27.049554-27.049554 42.503873-65.68435 42.503873-104.330141-11.596236-73.420505-81.149663-142.97793-166.157408-142.97793zM716.801199 911.945699c-50.236029 0-92.739902-42.50887-92.739901-92.744899 0-42.503873 30.913634-81.144665 69.554426-88.876822-3.864079 11.596236-3.864079 23.186475-3.864079 34.776713 0 57.968186 34.777713 104.336138 85.013742 127.522612-19.324394 11.590239-38.64679 19.322395-57.964188 19.322396z m115.92038-46.37195c-57.957191 0-104.330141-46.372949-104.330141-104.330141 0-57.968186 46.372949-104.336138 104.330141-104.336137 57.968186 0 104.336138 46.367952 104.336137 104.336137 0 54.094111-46.367952 104.330141-104.336137 104.330141z m-50.231032-123.653536h54.100109c7.72616 0 15.454318-7.72616 15.454318-15.453318 0-7.732157-7.727159-15.460315-15.454318-15.460315h-54.100109c-7.72616 0-15.454318 7.727159-15.454318 15.460315-3.868077 7.727159 3.859082 15.453319 15.454318 15.453318m0 57.963189h54.100109c7.72616 0 15.454318-7.732157 15.454318-15.459316 0-7.727159-7.727159-15.454318-15.454318-15.454318h-54.100109c-7.72616 0-15.454318 7.72616-15.454318 15.454318-3.868077 7.727159 3.859082 15.459316 15.454318 15.459316" fill="#e6e6e6" p-id="20269"></path></svg>