<?xml version="1.0" standalone="no"?><!DOCTYPE svg PUBLIC "-//W3C//DTD SVG 1.1//EN" "http://www.w3.org/Graphics/SVG/1.1/DTD/svg11.dtd"><svg t="1545202591811" class="icon" style="" viewBox="0 0 1024 1024" version="1.1" xmlns="http://www.w3.org/2000/svg" p-id="12189" xmlns:xlink="http://www.w3.org/1999/xlink" width="200" height="200"><defs><style type="text/css"></style></defs><path d="M834.684878 559.253854c22.677854 0 40.96 18.382049 40.96 40.96 0 22.677854-18.382049 41.159805-40.96 41.159805H552.96v341.666341c0 22.677854-18.382049 40.96-40.96 40.96s-40.96-18.382049-40.96-40.96V641.373659H189.315122c-22.677854 0-40.96-18.382049-40.96-40.96 0-22.677854 18.382049-40.96 40.96-40.96h281.724878V377.63122H189.315122c-22.677854 0-40.96-18.382049-40.96-40.96 0-22.677854 18.382049-40.96 40.96-40.96h241.863805L203.201561 78.62322c-16.384-15.684683-16.983415-41.659317-1.498537-57.943415 15.684683-16.384 41.659317-16.983415 58.043317-1.498537l254.851122 242.363317L763.254634 12.987317c15.98439-15.98439 41.959024-15.98439 58.043317 0 15.98439 15.98439 15.98439 41.959024 0 57.943415L596.917073 295.411512h237.767805c22.677854 0 40.96 18.382049 40.96 40.96 0 22.677854-18.382049 40.96-40.96 40.96H552.96v181.722537h281.724878v0.199805z" fill="#e6e6e6" p-id="12190"></path></svg>