<?xml version="1.0" standalone="no"?><!DOCTYPE svg PUBLIC "-//W3C//DTD SVG 1.1//EN" "http://www.w3.org/Graphics/SVG/1.1/DTD/svg11.dtd"><svg t="1543974252496" class="icon" style="" viewBox="0 0 1024 1024" version="1.1" xmlns="http://www.w3.org/2000/svg" p-id="19276" xmlns:xlink="http://www.w3.org/1999/xlink" width="200" height="200"><defs><style type="text/css"></style></defs><path d="M512 311.68m-257.6 0a257.6 257.6 0 1 0 515.2 0 257.6 257.6 0 1 0-515.2 0Z" fill="#e6e6e6" p-id="19277"></path><path d="M297.28 541.76a314.56 314.56 0 0 0 429.44 0 390.08 390.08 0 0 1 185.92 342.08 85.76 85.76 0 0 1-85.76 85.76H197.44a85.76 85.76 0 0 1-85.76-85.76 390.08 390.08 0 0 1 185.6-342.08z" fill="#e6e6e6" p-id="19278"></path><path d="M700.16 659.2A28.48 28.48 0 1 1 736 615.68a334.4 334.4 0 0 1 113.6 168.96 28.48 28.48 0 1 1-56 11.2 282.56 282.56 0 0 0-93.44-136.64z m112.32 212.8a28.48 28.48 0 0 1 56.96-3.84 58.56 58.56 0 0 1 0 15.04V888.64a28.48 28.48 0 1 1-57.28-2.88 89.6 89.6 0 0 1 0-10.24v-1.92s0.64 1.28 0.32-1.6z" fill="#e6e6e6" p-id="19279"></path></svg>