<?xml version="1.0" standalone="no"?><!DOCTYPE svg PUBLIC "-//W3C//DTD SVG 1.1//EN" "http://www.w3.org/Graphics/SVG/1.1/DTD/svg11.dtd"><svg t="1543972878516" class="icon" style="" viewBox="0 0 1102 1024" version="1.1" xmlns="http://www.w3.org/2000/svg" p-id="2761" xmlns:xlink="http://www.w3.org/1999/xlink" width="215.234375" height="200"><defs><style type="text/css"></style></defs><path d="M1019.116308 130.205538H84.834462L0 384.078769c0 78.375385 61.833846 141.390769 137.846154 141.390769S275.692308 461.824 275.692308 384.078769c0 78.375385 61.833846 141.390769 137.846154 141.390769S551.384615 461.824 551.384615 384.078769c0 78.375385 61.833846 141.390769 137.846154 141.390769s137.846154-63.645538 137.846154-141.390769c0 78.375385 61.833846 141.390769 137.846154 141.390769S1102.769231 461.824 1102.769231 384.078769l-83.652923-253.873231zM178.491077 86.016h747.52c28.356923 0 51.278769-18.904615 51.278769-43.008 0-23.630769-23.000615-43.008-51.2-43.008H178.412308c-28.278154 0-51.2 19.456-51.2 43.008 0 23.630769 22.921846 43.008 51.2 43.008z m649.767385 446.542769a198.340923 198.340923 0 0 1-137.846154 55.926154 197.238154 197.238154 0 0 1-137.846154-55.926154 198.340923 198.340923 0 0 1-137.846154 55.926154 197.238154 197.238154 0 0 1-137.846154-55.926154 198.340923 198.340923 0 0 1-137.846154 55.926154H128.393846v312.241231c0 51.830154 46.001231 85.385846 84.834462 85.385846h679.778461c51.278769 0 84.913231-38.833231 84.913231-85.385846V588.406154h-10.633846a197.947077 197.947077 0 0 1-139.027692-55.926154z" p-id="2762" fill="#e6e6e6"></path></svg>