<?xml version="1.0" standalone="no"?><!DOCTYPE svg PUBLIC "-//W3C//DTD SVG 1.1//EN" "http://www.w3.org/Graphics/SVG/1.1/DTD/svg11.dtd"><svg t="1543973762778" class="icon" style="" viewBox="0 0 1024 1024" version="1.1" xmlns="http://www.w3.org/2000/svg" p-id="8225" xmlns:xlink="http://www.w3.org/1999/xlink" width="200" height="200"><defs><style type="text/css"></style></defs><path d="M808.069565 354.579692 681.182609 354.579692 681.182609 311.689846C681.182609 239.379692 659.319011 118.390154 512 118.390154 359.041572 118.390154 342.817391 253.44 342.817391 311.689846L342.817391 354.579692 215.930435 354.579692 215.930435 311.689846C215.930435 122.249846 332.232633 0 512 0 691.767367 0 808.069565 122.249846 808.069565 311.689846L808.069565 354.579692 808.069565 354.579692ZM596.591304 669.420308C596.591304 625.900308 558.503526 590.769232 512 590.769232 465.496474 590.769232 427.408696 625.900308 427.408696 669.420308 427.408696 698.88 444.370339 723.889232 469.74773 737.240616L469.74773 826.88C469.74773 848.620308 488.748237 866.579692 512.043382 866.579692 535.338523 866.579692 554.339034 848.620308 554.339034 826.88L554.339034 737.240616C579.673043 723.889232 596.591304 698.88 596.591304 669.420308L596.591304 669.420308ZM934.956522 512 934.956522 905.609848C934.956522 970.870152 877.824855 1024 808.069565 1024L215.930435 1024C146.218524 1024 89.043478 970.870152 89.043478 905.609848L89.043478 512C89.043478 446.779076 146.175143 393.609848 215.930435 393.609848L808.069565 393.609848C877.824855 393.609848 934.956522 446.779076 934.956522 512L934.956522 512Z" p-id="8226" fill="#e6e6e6"></path></svg>