<?xml version="1.0" standalone="no"?><!DOCTYPE svg PUBLIC "-//W3C//DTD SVG 1.1//EN" "http://www.w3.org/Graphics/SVG/1.1/DTD/svg11.dtd"><svg t="1526461374490" class="icon" style="" viewBox="0 0 1024 1024" version="1.1" xmlns="http://www.w3.org/2000/svg" p-id="4349" xmlns:xlink="http://www.w3.org/1999/xlink" width="200" height="200"><defs><style type="text/css"></style></defs><path d="M987.776 441.696a22.304 22.304 0 0 0-1.856-2l-90.864-86.656 0.032-0.528L532.688 7.424a23.088 23.088 0 0 0-32.144-0.208L36.48 439.504c-0.736 0.672-1.44 1.408-2.096 2.208C22.528 455.696 16 474.256 16 493.792c0 41.312 29.312 74.912 65.36 74.912h22.336v428.8c0 14.64 10.976 26.496 24.48 26.496h771.648c13.552 0 24.496-11.856 24.496-26.496v-428.8h16.496c36.032 0 65.376-33.616 65.376-74.912 0-19.568-6.528-38.096-18.416-52.096z m-80.272 75.952h-30.08c-1.856 0 18.336-1.712 16.512-1.248-1.744-0.464-20.544 1.776-22.432 1.776-13.536 0-27.504-0.64-27.504 14l2 426.832h-656l-1.328-416.832c0-14.64-10.976-26.528-24.48-26.528H117.36c-8.88 0-16.4-10-16.4-21.84 0-5.84 1.696-11.216 4.8-15.344L514 94.176l405.024 386.16c3.104 4.16 4.88 9.6 4.88 15.44-0.032 11.872-7.536 21.872-16.4 21.872z" p-id="4350"></path><path d="M436.912 493.504c12.208 0 22.384-10.176 22.384-22.384v-42.736c0-12.208-10.176-22.384-22.384-22.384a22.56 22.56 0 0 0-22.384 22.384v44.768c0 12.208 10.16 20.352 22.384 20.352z m132.272 0a22.56 22.56 0 0 0 22.368-22.384v-42.736a22.56 22.56 0 0 0-22.368-22.384c-12.208 0-22.384 10.176-22.384 22.384v44.768c0 12.208 10.192 20.352 22.384 20.352zM369.76 515.888v199.424c0 36.624 30.528 67.152 67.152 67.152h132.272c36.64 0 67.152-30.528 67.152-67.152V515.888H369.76z m109.888 221.808v-87.504h-42.72l87.504-87.52v87.52h44.768l-89.552 87.504z m-42.736 87.504h22.384v89.552h87.504v-87.52h22.384v-22.368h-132.272v20.336z" p-id="4351"></path></svg>