<?xml version="1.0" standalone="no"?><!DOCTYPE svg PUBLIC "-//W3C//DTD SVG 1.1//EN" "http://www.w3.org/Graphics/SVG/1.1/DTD/svg11.dtd"><svg t="1526461297582" class="icon" style="" viewBox="0 0 1024 1024" version="1.1" xmlns="http://www.w3.org/2000/svg" p-id="3982" xmlns:xlink="http://www.w3.org/1999/xlink" width="200" height="200"><defs><style type="text/css"></style></defs><path d="M953.274192 628.793006l-21.366633-21.325701c-5.910617-5.880941-15.507182-5.880941-21.391193 0l-32.075533 31.949666 42.75885 42.652426 32.075533-31.949666C959.186855 644.23879 959.186855 634.704646 953.274192 628.793006zM728.751602 788.699949l-14.251585 56.841589 56.979736-14.21884L728.751602 788.699949zM739.51576 778.022773l42.72815 42.621726 128.300085-127.927601-42.756803-42.652426L739.51576 778.022773zM839.594083 865.172645c0 38.442544-27.164686 52.501748-65.626673 52.501748L157.075455 917.674393c-16.229636 0.966001-52.501748-33.390481-52.501748-52.501748L104.573707 156.403143c1.426489-19.86135 34.018791-52.501748 52.501748-52.501748l616.891955 0c30.474059-0.665149 65.626673 31.57002 65.626673 52.501748L839.594083 589.540004c0 10.377348 39.375799 10.377348 39.375799 0L878.969882 169.528068c0-53.803393-47.801702-105.002472-101.634772-105.002472L162.815179 64.525596c-53.827953 0-97.617271 43.767829-97.617271 97.571223l0 697.383174c0 53.80237 43.789319 97.570199 97.617271 97.570199l614.519931 0c53.834092 0 101.634772-38.075177 101.634772-91.877547C878.969882 846.096171 839.594083 846.096171 839.594083 865.172645zM252.739235 240.400209c-5.16565-5.158487-12.421914-8.162914-19.723204-8.162914-7.30129 0-14.557554 3.004427-19.718087 8.162914-5.164626 5.16258-8.172123 12.413727-8.172123 19.713994 0 7.297197 3.007497 14.549368 8.172123 19.711947 5.160533 5.15951 12.416797 8.162914 19.718087 8.162914 7.30129 0 14.557554-3.003404 19.723204-8.162914 5.164626-5.16258 8.170077-12.413727 8.170077-19.711947C260.909311 252.813936 257.903861 245.562788 252.739235 240.400209zM629.588115 235.154741 288.328801 235.154741c-15.683191 0-15.244192 38.895869 0.440022 38.895869l340.819293 0.479931C645.457548 274.531564 645.457548 235.154741 629.588115 235.154741zM252.739235 342.627475c-5.16565-5.158487-12.421914-8.162914-19.723204-8.162914-7.30129 0-14.557554 3.004427-19.718087 8.162914-5.164626 5.16258-8.172123 12.413727-8.172123 19.712971 0 7.299243 3.007497 14.550391 8.172123 19.712971 5.160533 5.15951 12.416797 8.163937 19.718087 8.163937 7.30129 0 14.557554-3.004427 19.723204-8.163937 5.164626-5.16258 8.170077-12.413727 8.170077-19.712971C260.909311 355.041202 257.903861 347.789031 252.739235 342.627475zM629.588115 340.158237 288.328801 340.158237c-15.868409 0-15.868409 39.375799 0 39.375799l341.259314 0C645.457548 379.534036 645.457548 340.158237 629.588115 340.158237zM252.739235 444.853717c-5.16565-5.158487-12.421914-8.162914-19.723204-8.162914-7.30129 0-14.557554 3.004427-19.718087 8.162914-5.164626 5.16258-8.172123 12.413727-8.172123 19.712971 0 7.299243 3.007497 14.550391 8.172123 19.713994 5.160533 5.16258 12.416797 8.162914 19.718087 8.162914 7.30129 0 14.557554-3.000334 19.723204-8.162914 5.164626-5.163603 8.170077-12.415774 8.170077-19.713994C260.909311 457.267445 257.903861 450.016297 252.739235 444.853717zM233.016031 538.88737c-7.30129 0-14.557554 3.004427-19.718087 8.167007-5.164626 5.158487-8.172123 12.413727-8.172123 19.712971s3.007497 14.552437 8.172123 19.708877c5.160533 5.163603 12.416797 8.167007 19.718087 8.167007 7.30129 0 14.557554-3.003404 19.723204-8.167007 5.164626-5.15644 8.170077-12.409634 8.170077-19.708877s-3.00545-14.554484-8.170077-19.712971C247.573585 541.891797 240.317321 538.88737 233.016031 538.88737zM629.588115 445.160709 288.328801 445.160709c-15.683191 0-15.244192 38.895869 0.440022 38.895869l340.819293 0.479931C645.457548 484.537532 645.457548 445.160709 629.588115 445.160709zM629.588115 550.164205 288.328801 550.164205c-15.868409 0-15.868409 39.375799 0 39.375799l341.259314 0C645.457548 589.540004 645.457548 550.164205 629.588115 550.164205z" p-id="3983"></path></svg>