<?xml version="1.0" standalone="no"?><!DOCTYPE svg PUBLIC "-//W3C//DTD SVG 1.1//EN" "http://www.w3.org/Graphics/SVG/1.1/DTD/svg11.dtd"><svg t="1543972898720" class="icon" style="" viewBox="0 0 1024 1024" version="1.1" xmlns="http://www.w3.org/2000/svg" p-id="4196" xmlns:xlink="http://www.w3.org/1999/xlink" width="200" height="200"><defs><style type="text/css"></style></defs><path d="M0.896 581.12v209.984c0 12.16 2.944 23.36 8.96 33.792 5.952 10.432 14.08 18.304 24.32 23.68l210.496 113.152a50.56 50.56 0 0 0 26.816 7.04 50.816 50.816 0 0 0 26.816-7.04l210.432-113.152c1.28-0.64 2.368-1.28 3.264-1.984 0.64 0.64 1.728 1.28 3.328 1.984l210.496 113.152a50.56 50.56 0 0 0 26.816 7.04 50.816 50.816 0 0 0 26.816-7.04l210.432-113.152a58.496 58.496 0 0 0 24.384-23.68c6.016-10.432 8.96-21.76 8.96-33.792V581.12c0-12.8-3.392-24.576-10.176-35.328a65.728 65.728 0 0 0-26.496-24.32l-203.904-93.824V225.664c0-12.736-3.328-24.576-10.112-35.264a65.728 65.728 0 0 0-26.496-24.32L535.552 69.184A55.232 55.232 0 0 0 512.128 64a54.912 54.912 0 0 0-23.488 5.12L278.144 166.08a63.744 63.744 0 0 0-26.496 24.32 64.896 64.896 0 0 0-10.112 35.264v201.984L37.568 521.472a62.144 62.144 0 0 0-26.88 24.32 67.328 67.328 0 0 0-9.792 35.264z m751.744 77.76L562.816 571.52l189.824-87.296 189.824 87.232-189.824 87.424z m-30.08 229.12l-180.416-96.896V632.576l180.48 82.752v172.736zM512.128 319.68L304.896 224.192l207.232-95.424 207.232 95.36-207.232 95.488z m-30.08 191.36L301.632 427.52V293.312l180.416 82.752v134.848z m-210.496 147.84L81.728 571.52l189.824-87.296L461.44 571.52l-189.824 87.36z m-30.08 229.248L61.184 791.04V632.576l180.416 82.752v172.736z" p-id="4197" fill="#e6e6e6"></path></svg>