<?xml version="1.0" standalone="no"?><!DOCTYPE svg PUBLIC "-//W3C//DTD SVG 1.1//EN" "http://www.w3.org/Graphics/SVG/1.1/DTD/svg11.dtd"><svg t="1545202542582" class="icon" style="" viewBox="0 0 1095 1024" version="1.1" xmlns="http://www.w3.org/2000/svg" p-id="11568" xmlns:xlink="http://www.w3.org/1999/xlink" width="213.8671875" height="200"><defs><style type="text/css"></style></defs><path d="M184.502 3.426l397.896 0c0.119 44.034-0.19 88.068 0.161 132.103 1.72 46.366 24.058 96.021 68.172 116.078 14.805 6.622 31.259 7.853 47.274 7.662 47.076 0.02 94.141-0.08 141.215 0.05 0.08 84.527 0.07 169.065 0 253.602-46.086-4.691-93.539-0.631-137.085 15.806-58.018 21.517-108.704 62.18-142.225 114.217-99.692 0.19-199.384-0.05-299.075 0.119-20.076-0.15-39.203 10.573-50.917 26.628-13.004 17.095-15.595 40.964-8.073 60.891 9.352 23.508 33.561 40.532 59.049 40.252 84.646 0.13 169.294 0.02 253.941 0.05-5.952 67.723 10.683 137.624 50.095 193.403-120.358 0.02-240.718 0.02-361.086 0-16.235 0.2-32-4.961-46.354-12.214-28.7-14.626-53.597-36.991-70.603-64.4-10.943-16.877-17.336-36.782-17.106-56.978-0.039-229.403 0.011-458.807-0.02-688.221-1.42-38.902 18.176-75.955 45.304-102.783 18.975-18.356 42.513-33.8 69.432-36.26M251.233 388.038c-21.638 3.211-40.763 18.695-49.126 38.802-8.152 20.737-5.091 45.895 9.163 63.29 11.943 15.435 30.97 25.239 50.617 24.929 128.35 0.039 256.713 0.08 385.074-0.02 30.54 0.311 58.679-24.597 62.678-54.737 6.972-36.633-24.708-73.374-61.67-73.052-126.701-0.18-253.402-0.02-380.102-0.08-5.563-0.011-11.144-0.011-16.635 0.871L251.233 388.038zM646.94 3.426l10.173 0c26.859 4.801 46.915 25.079 67.431 41.474 35.612 30.88 72.923 60.81 101.563 98.581 11.303 14.205 14.855 32.46 13.114 50.227-50.396 0.11-100.792 0.08-151.179 0.011-8.471 0.19-16.185-4.551-21.176-11.153-12.415-14.715-18.875-34.021-19.877-53.086-0.119-42.023-0.02-84.036-0.05-126.05L646.94 3.426z" p-id="11569" fill="#e6e6e6"></path><path d="M814.73536 573.184c-128.53248 0-232.81664 100.88448-232.81664 225.36192 0 124.47744 104.18688 225.45408 232.81664 225.45408 128.62976 0 232.81664-100.97664 232.81664-225.55136C1047.552 674.06848 943.36512 573.184 814.73536 573.184zM813.2608 759.36256c-4.07552 0-7.13216-2.03264-9.1648-4.06528-2.03264-2.03264-3.05664-5.08928-4.07552-9.1648 0-4.07552 2.04288-6.12864 4.07552-9.1648 2.03264-2.03264 5.08928-4.0704 9.1648-4.0704l30.56128 0-28.52864-50.944c-1.01376 0-2.03264-2.04288-4.06528-5.09952-1.024-3.0464-2.04288-5.08928-2.04288-9.17504 1.01888-4.07552 2.04288-7.13216 4.07552-10.1888 2.03264-2.03264 6.10816-4.06528 12.2368-5.08928 3.0464 0 6.10304 1.024 9.15456 3.05664 3.05664 2.03264 5.09952 4.0704 7.13216 7.12192l33.61792 61.1328 35.65056-60.1088c2.04288-2.03264 4.07552-4.07552 7.15264-6.12864 3.03616-2.03264 6.10816-3.05664 9.1648-3.05664 2.03264 0 4.06528 0 6.10816 1.024 2.03264 0 3.0464 1.01376 5.08928 2.03264 1.01376 1.01888 2.03264 2.03264 3.05664 4.07552 1.01376 2.03264 2.01728 4.06528 2.01728 7.12192 0 4.07552-1.01888 8.14592-4.07552 12.2368l-33.59744 54.00064 30.5408 0c4.096 0 7.13216 2.03264 9.18528 4.0704 2.0224 2.04288 3.03616 5.0944 4.06016 8.15104l0 1.01376c0 3.05664-2.01728 6.12864-4.06016 9.18528-2.05312 3.05664-5.08928 4.07552-9.18528 4.07552l-40.73984 0 0 12.2112 40.73984 0c4.096 0 7.13216 2.04288 9.18528 4.07552 2.0224 2.03264 3.03616 5.08928 4.06016 8.14592l0 1.01888c0 3.0464-2.01728 6.1184-4.06016 9.17504-2.05312 2.04288-5.08928 4.07552-9.18528 4.07552l-41.75872 0 0 22.41536c-1.02912 12.2368-7.1424 18.35008-20.39808 18.35008-6.10816 0-11.20256-1.024-14.25408-4.07552-3.072-2.03264-5.08928-7.12192-5.08928-13.2352l0-22.43584-41.74336 0c-4.07552 0-7.13216-2.04288-9.1648-5.09952-2.03264-3.05664-3.05664-6.12864-4.07552-10.17856 0-4.06528 2.04288-6.12864 4.07552-9.18528 2.03264-2.03264 5.08928-4.0704 9.1648-4.0704l41.7792 0 0-13.24032L813.2608 759.35232zM722.60608 831.6928l0 98.816c0 8.16128-6.12864 14.27456-14.27456 14.27456l-21.40672 0c-8.14592 0-14.25408-6.12864-14.25408-14.27456l0-98.816c0-8.14592 6.10816-14.27456 14.25408-14.27456l21.40672 0C716.49792 817.41824 722.60608 823.54688 722.60608 831.6928L722.60608 831.6928zM973.20448 881.63328l-109.02016 59.09504-109.02016-20.38272-28.52864 0 0-80.49152 42.79808-9.1648 96.79872 39.72608c9.1648 3.05664 13.2352 12.24192 13.2352 20.38272l0 1.01888 0 1.024 0 1.01376 0 1.01888 0 1.01376 0 1.024c-1.01376 1.01888-1.01376 1.01888-1.01376 2.03264-3.05664 8.14592-11.21792 13.24032-19.36384 13.24032-3.05664 0-5.07904-1.01888-8.14592-2.04288l-36.66944-15.2832 0 5.08928 34.64704 14.27456c3.03616 1.024 7.13216 2.03264 10.1888 2.03264 11.19744 0 20.35712-7.12192 24.448-16.28672 2.03264-6.12864 3.03616-12.2368 1.024-17.32608l70.28736-37.69344c10.19392-6.10816 23.43936-2.03264 28.52864 8.14592C989.51168 864.28672 985.43104 876.52352 973.20448 881.63328z" p-id="11570" fill="#e6e6e6"></path></svg>