<?xml version="1.0" standalone="no"?><!DOCTYPE svg PUBLIC "-//W3C//DTD SVG 1.1//EN" "http://www.w3.org/Graphics/SVG/1.1/DTD/svg11.dtd"><svg t="1543973919756" class="icon" style="" viewBox="0 0 1024 1024" version="1.1" xmlns="http://www.w3.org/2000/svg" p-id="11441" xmlns:xlink="http://www.w3.org/1999/xlink" width="200" height="200"><defs><style type="text/css"></style></defs><path d="M512 463.811765c120.470588 0 216.847059-96.376471 216.847059-216.847059S632.470588 30.117647 512 30.117647 295.152941 126.494118 295.152941 246.964706c0 114.447059 96.376471 216.847059 216.847059 216.847059z" fill="#e6e6e6" p-id="11442"></path><path d="M512 487.905882c-132.517647 0-240.941176-108.423529-240.941176-240.941176s108.423529-240.941176 240.941176-240.941177 240.941176 108.423529 240.941176 240.941177c6.023529 132.517647-108.423529 240.941176-240.941176 240.941176z m0-433.694117C409.6 54.211765 319.247059 138.541176 319.247059 240.941176c0 102.4 84.329412 192.752941 192.752941 192.752942 102.4 0 192.752941-84.329412 192.752941-192.752942 0-102.4-84.329412-186.729412-192.752941-186.729411zM512 1024c-301.176471 0-379.482353-132.517647-379.482353-138.541176 0-6.023529-6.023529-6.023529-6.023529-12.047059 0-138.541176 78.305882-271.058824 198.77647-337.317647 12.047059-12.047059 30.117647-6.023529 36.141177 6.023529 6.023529 12.047059 0 30.117647-12.047059 36.141177-102.4 60.235294-168.658824 168.658824-174.682353 283.105882 18.070588 24.094118 96.376471 108.423529 331.294118 108.423529s319.247059-84.329412 337.317647-108.423529c0-120.470588-66.258824-228.894118-174.682353-283.105882-6.023529-6.023529-12.047059-24.094118-6.02353-36.141177 6.023529-12.047059 24.094118-18.070588 36.141177-12.047059 120.470588 66.258824 198.776471 198.776471 198.77647 337.317647 0 6.023529 0 12.047059-6.023529 12.047059 0 12.047059-84.329412 144.564706-379.482353 144.564706z m361.411765-150.588235z" fill="#e6e6e6" p-id="11443"></path><path d="M512 632.470588c-108.423529 0-186.729412-54.211765-186.729412-54.211764-12.047059-6.023529-18.070588-24.094118-6.023529-36.141177 6.023529-12.047059 24.094118-12.047059 36.141176-6.023529 0 0 66.258824 48.188235 156.611765 48.188235s156.611765-48.188235 156.611765-48.188235c12.047059-6.023529 30.117647-6.023529 36.141176 6.023529 6.023529 12.047059 6.023529 30.117647-6.023529 36.141177 0 0-78.305882 54.211765-186.729412 54.211764z" fill="#e6e6e6" p-id="11444"></path><path d="M331.294118 572.235294s-96.376471 84.329412-108.42353 114.447059c-12.047059 30.117647-72.282353 168.658824-54.211764 192.752941 12.047059 24.094118 186.729412 126.494118 331.294117 108.42353s349.364706-54.211765 361.411765-120.470589-90.352941-289.129412-156.611765-301.17647-174.682353 36.141176-198.77647 36.141176c-30.117647 6.023529-174.682353-30.117647-174.682353-30.117647z" fill="#e6e6e6" p-id="11445"></path></svg>