<?xml version="1.0" standalone="no"?><!DOCTYPE svg PUBLIC "-//W3C//DTD SVG 1.1//EN" "http://www.w3.org/Graphics/SVG/1.1/DTD/svg11.dtd"><svg t="1543974220543" class="icon" style="" viewBox="0 0 1024 1024" version="1.1" xmlns="http://www.w3.org/2000/svg" p-id="18371" xmlns:xlink="http://www.w3.org/1999/xlink" width="200" height="200"><defs><style type="text/css"></style></defs><path d="M971.918 1024zM513.769 186.363c-31.312 0-59.272-29.45-59.272-62.629s27.956-62.628 59.272-62.628c34.854 0 59.273 29.45 59.273 62.628 0 40.45-27.956 62.629-59.273 62.629z m163.652-95.804c-17.334 0-27.956-14.725-27.956-29.45 0-29.45-24.417-55.17-55.728-55.17H429.9c-31.313 0-55.729 25.722-55.729 55.17 0 18.45-13.98 29.45-27.956 29.45H325.34c-17.334 0-27.956 14.726-27.956 29.45v88.35c0 18.45 13.98 29.45 27.956 29.45h369.426c17.333 0 27.956-14.726 27.956-29.45v-88.35c0-18.45-13.98-29.45-27.956-29.45h-17.334z m122.087 379.304l-310.153 383.22c-6.895 10.996-27.956 7.455-38.397-3.73L241.831 668.928c-3.541-3.73-6.895-10.997 0-14.726l38.396-47.903c3.541-3.729 10.438-3.729 13.98 0l163.836 139.98c6.895 3.73 13.98 3.73 20.876-3.728l257.777-331.588c3.54-7.456 10.438-7.456 13.98-3.73l48.832 44.176c6.895 3.73 10.438 7.456 0 18.451z m0-312.95v128.983c0 18.45-13.98 29.45-27.956 29.45l-519.285 3.729c-17.333 0-27.955-14.726-27.955-29.45V160.642c0-18.451-13.98-29.45-27.956-29.45h-17.334c-45.293-3.73-66.171 25.722-66.171 66.354v718.348c0 33.177 31.312 77.351 73.25 77.351h651.621c34.854 0 73.25-40.449 73.25-77.35V193.631c0-33.178-24.416-66.355-62.812-66.355h-17.334c-17.334 0.187-31.312 11.186-31.312 29.636z m-420.124 638.76z" p-id="18372" fill="#e6e6e6"></path></svg>