<?xml version="1.0" standalone="no"?><!DOCTYPE svg PUBLIC "-//W3C//DTD SVG 1.1//EN" "http://www.w3.org/Graphics/SVG/1.1/DTD/svg11.dtd"><svg t="1543974315876" class="icon" style="" viewBox="0 0 1024 1024" version="1.1" xmlns="http://www.w3.org/2000/svg" p-id="20847" xmlns:xlink="http://www.w3.org/1999/xlink" width="200" height="200"><defs><style type="text/css"></style></defs><path d="M975.744 354.048a1.984 1.984 0 0 1-0.256-0.384l-237.184-271.36a58.24 58.24 0 0 0-44.608-21.824h-0.32a58.88 58.88 0 0 0-44.864 21.696 67.584 67.584 0 0 0-16.128 44.8v114.496H541.568c-16.64 0-30.016 13.44-30.016 30.144 0 16.64 13.376 30.144 30.016 30.144h120.96a30.08 30.08 0 0 0 30.08-30.144v-144.64c0-2.048 0.512-3.712 0.896-4.544l236.48 270.656c2.368 3.008 2.368 9.024 0 11.904l-236.288 270.784a9.728 9.728 0 0 1-1.088-4.736V513.92a30.08 30.08 0 0 0-30.08-30.208H390.592V356.864c0-36.608-27.392-66.304-60.928-66.304-17.28 0-33.6 7.68-44.928 21.12L48.512 583.488l-0.256 0.256a71.104 71.104 0 0 0 0.448 90.368l236.096 267.648a58.24 58.24 0 0 0 44.544 21.76h0.256c17.024 0 33.28-7.872 44.992-21.632 10.432-11.904 16-27.776 16-44.736V784h92.736a30.08 30.08 0 0 0 0-60.288H360.512c-16.64 0-30.08 13.376-30.08 30.144v143.36a11.52 11.52 0 0 1-0.832 4.48L94.08 634.56c-2.24-2.88-2.24-8.896 0-11.904l235.328-270.592a11.008 11.008 0 0 1 1.024 4.864v157.056c0 16.704 13.44 30.144 30.08 30.144h272v126.848c0 36.48 27.392 66.368 60.864 66.368a57.92 57.92 0 0 0 44.8-21.12l237.248-271.744 0.256-0.448a71.232 71.232 0 0 0 0.064-89.984z" fill="#e6e6e6" p-id="20848"></path></svg>